<svg width="457" height="327" viewBox="0 0 457 327" fill="none" xmlns="http://www.w3.org/2000/svg">
<path d="M221.736 322.575L9.21714 196.893C2.45324 193.095 -3.35283 186.847 3.24552 182.764L216.533 59.6975C219.738 57.7095 224.598 56.4079 227.85 58.3012L450.94 187.912C457.704 191.84 458.922 202.822 452.123 206.762L249.785 322.386C245.53 324.857 240.705 326.175 235.786 326.208C230.866 326.242 226.023 324.989 221.736 322.575Z" fill="#FFC2A4"/>
<path opacity="0.32" d="M162.422 284.223C187.16 271.597 224.101 253.303 239.58 244.7L219.478 235.233L136.419 268.852C144.815 274.401 153.66 279.253 162.422 284.223Z" fill="url(#paint0_linear_61_1017)"/>
<path opacity="0.32" d="M136.419 268.852C159.809 258.758 183.648 250.96 194.669 244.842L176.931 236.44L121.283 258.995C128.508 264 129.004 264 136.419 268.852Z" fill="url(#paint1_linear_61_1017)"/>
<path d="M231.705 71.9686L232.733 65.5668C232.733 65.5668 232.804 57.1651 233.916 57.2835C235.027 57.4018 235.512 59.2833 235.418 61.2831C235.323 63.283 235.418 71.9331 235.418 71.9331" fill="#E56461"/>
<path d="M234.046 79.9443C234.046 79.9443 239.899 76.2404 240.443 71.9686C240.987 67.6968 235.146 64.6201 235.146 64.6201L233.549 70.4185" fill="#E56461"/>
<path d="M228.583 77.8262C228.583 77.8262 229.766 72.016 229.766 71.5782C229.766 71.1403 231.374 66.194 232.994 66.0875C234.614 65.981 238.043 66.194 238.481 67.1643C238.918 68.1347 236.116 69.0458 234.283 69.0695C234.283 69.0695 237.192 72.3237 236.116 76.1695C235.278 78.6713 233.609 80.8099 231.386 82.2282" fill="#F67770"/>
<path d="M228.5 227.719C228.476 228.443 228.61 229.164 228.894 229.83C229.178 230.497 229.605 231.093 230.144 231.577C231.929 232.973 238.551 237.174 239.273 238.203C239.994 239.233 241.259 242.144 240.112 243.41C238.965 244.676 236.411 245.209 233.017 244.593C228.335 243.295 223.84 241.398 219.643 238.949C217.999 237.659 216.876 221.767 216.876 221.767C216.876 221.767 224.692 218.465 227.743 220.016L228.5 227.719Z" fill="#42210B"/>
<path d="M184.972 233.683C184.7 234.354 184.578 235.077 184.614 235.801C184.651 236.525 184.846 237.232 185.185 237.872C186.368 239.801 191.098 246.037 191.464 247.256C191.831 248.475 191.973 251.646 190.447 252.427C188.922 253.208 186.356 252.829 183.447 251.054C179.487 248.218 175.91 244.881 172.804 241.126C171.705 239.339 176.163 224.051 176.163 224.051C176.163 224.051 184.629 223.66 186.959 226.181L184.972 233.683Z" fill="#42210B"/>
<path d="M211.732 121.894C211.732 121.894 213.801 127.159 219.111 143.773C226.052 165.476 230.569 222.501 230.569 222.501C230.569 222.501 227.578 225.459 216.947 223.826L201.208 146.566C199.836 148.933 186.084 233.032 186.084 233.032C186.084 233.032 182.276 236.334 168.346 230.938C168.346 230.938 172.639 142.259 180.987 121.882" fill="#E6E6E6"/>
<path d="M184.913 126.438C187.361 126.343 194.172 128.059 198.819 127.716C203.303 127.51 207.74 126.714 212.016 125.349C212.193 124.532 212.347 123.669 212.465 122.722C215.552 98.8895 214.724 82.169 212.465 78.3942C210.207 74.6194 196.667 71.6255 190.506 73.3414C184.345 75.0572 175.075 82.24 175.075 82.24C175.075 82.24 177.617 102.463 182.17 116.841C183.447 120.9 183.447 120.9 184.913 126.438Z" fill="#42210B"/>
<path d="M200.369 75.637C202.544 76.0985 202.946 70.0754 202.024 69.5192C201.102 68.963 190.92 68.9039 189.348 69.602C185.907 71.1285 189.348 76.2287 189.348 76.2287" fill="#42210B"/>
<path d="M187.301 50.4557C189.264 50.1125 189.205 46.8465 192.836 45.3437C196.466 43.8408 200.77 45.9945 202.378 47.1542C203.987 48.3138 205.145 45.9708 206.884 47.7577C208.622 49.5445 207.522 52.3253 208.539 53.3075L208.681 53.4258C209.122 54.1683 209.367 55.0112 209.392 55.8746C209.417 56.7381 209.221 57.5937 208.823 58.3603C208.023 59.4235 207.085 60.3747 206.032 61.1885L189.69 69.7203C187.727 68.324 183.931 55.189 184.156 53.556C184.236 52.753 184.594 52.0033 185.169 51.437C185.743 50.8707 186.498 50.5235 187.301 50.4557Z" fill="#200904"/>
<path d="M205.24 55.4612C205.985 56.2659 203.537 72.0279 198.736 72.5959C193.936 73.1639 188.283 66.8212 187.787 64.9279C187.29 63.0346 187.585 52.9407 189.477 51.9822C191.369 51.0237 200.747 50.6214 205.24 55.4612Z" fill="#F67770"/>
<path d="M203.005 50.9053C203.005 50.9053 203.951 54.5736 198.216 55.26C192.481 55.9463 192.091 57.2361 191.417 59.2478C190.14 63.0226 186.119 67.4246 184.736 56.0765C184.665 55.5321 188.792 47.7931 193.238 47.1541C197.684 46.5151 203.005 50.9053 203.005 50.9053Z" fill="#200904"/>
<path d="M190.908 61.2595C190.908 61.2595 189.111 58.1591 187.715 59.6383C186.32 61.1175 187.325 64.5728 189.217 65.6615" fill="#F67770"/>
<path d="M212.501 78.4296C215.327 83.3452 217.607 88.5552 219.3 93.9668C219.3 93.9668 226.797 75.9565 228.252 76.2168C229.706 76.4771 234.708 79.5893 235.122 81.6838C235.536 83.7783 227.696 111.492 218.082 113.989C208.469 116.486 203.053 95.0555 203.053 95.0555" fill="#42210B"/>
<path opacity="0.32" d="M260.286 291.749C278.023 282.2 323.892 254.119 341.476 244.357L294.176 236.44L224.846 260.971C243.376 270.662 234.649 275.833 260.286 291.749Z" fill="url(#paint2_linear_61_1017)"/>
<path d="M302.844 231.837C302.074 231.84 301.308 231.724 300.573 231.494L300.23 233.091L337.136 233.754V231.837H302.844Z" fill="#BA4D02"/>
<path d="M300.562 231.553L300.23 233.091L320.605 241.292V239.304C313.735 236.984 307.113 234.31 300.562 231.553Z" fill="#BA4D02"/>
<path d="M319.706 120.746H319.458C318.943 120.695 318.428 120.837 318.013 121.146C317.597 121.454 317.312 121.906 317.211 122.414L294.519 244.392C294.431 244.864 294.511 245.351 294.744 245.77C294.977 246.19 295.349 246.514 295.796 246.688L296.246 246.865C296.527 246.973 296.828 247.017 297.128 246.996C297.428 246.974 297.719 246.887 297.982 246.74C298.245 246.593 298.472 246.391 298.648 246.147C298.824 245.903 298.944 245.623 299.001 245.327L321.705 123.183L319.706 120.746Z" fill="#BA4D02"/>
<path d="M341.748 244.925L326.719 122.237C326.662 121.794 326.448 121.387 326.116 121.089C325.784 120.791 325.355 120.623 324.91 120.615H323.964C323.705 120.62 323.451 120.679 323.216 120.789C322.982 120.898 322.774 121.055 322.604 121.251C322.435 121.446 322.308 121.675 322.233 121.922C322.157 122.169 322.135 122.43 322.166 122.686L337.231 245.646C337.262 245.907 337.347 246.158 337.483 246.382C337.619 246.607 337.801 246.799 338.017 246.947C338.233 247.095 338.479 247.195 338.737 247.24C338.995 247.285 339.26 247.275 339.513 247.208L340.4 246.995C340.842 246.881 341.226 246.604 341.475 246.221C341.725 245.838 341.822 245.376 341.748 244.925Z" fill="#BA4D02"/>
<path d="M320.534 256.391C320.854 256.435 321.181 256.41 321.491 256.318C321.801 256.226 322.088 256.069 322.333 255.857C322.577 255.646 322.775 255.385 322.911 255.091C323.047 254.797 323.12 254.478 323.124 254.155L324.637 120.615H323.951C323.005 120.615 322.059 120.615 321.137 120.746C320.767 120.766 320.396 120.766 320.025 120.746L318.512 254.072C318.506 254.629 318.704 255.169 319.067 255.592C319.431 256.014 319.935 256.29 320.487 256.367L320.534 256.391Z" fill="#BA4D02"/>
<path d="M306.912 105.173C304.239 105.102 298.634 98.3807 296.896 96.369C293.823 92.9709 291.273 89.1344 289.328 84.9854C278.52 61.5672 292.994 30.1379 319.943 28.28C321.853 28.17 323.768 28.17 325.678 28.28C343.415 29.0965 356.849 46.74 358.481 63.3895C359.173 71.7893 357.704 80.2266 354.212 87.8964C352.527 91.5393 350.263 94.8844 347.507 97.8009C345.591 99.8362 339.833 106.084 336.864 105.99L306.912 105.173Z" fill="#0016D2"/>
<path d="M315.461 106.924L312.032 60.1235C312.032 60.1235 305.741 48.6334 301.389 56.7629C297.038 64.8924 306.119 70.2055 324.744 69.4127C343.368 68.6199 346.738 59.8159 342.682 56.396C338.626 52.9762 331.851 57.6977 331.519 60.088C331.188 62.4784 327.322 106.889 327.322 106.889" stroke="#F2F2F2" stroke-width="2" stroke-miterlimit="10"/>
<path d="M339.631 104.427H304.795C301.823 104.427 299.415 106.835 299.415 109.806C299.415 112.776 301.823 115.184 304.795 115.184H339.631C342.603 115.184 345.012 112.776 345.012 109.806C345.012 106.835 342.603 104.427 339.631 104.427Z" fill="#CCCCCC"/>
<path d="M339.631 115.196H304.795C301.823 115.196 299.415 117.604 299.415 120.574C299.415 123.544 301.823 125.952 304.795 125.952H339.631C342.603 125.952 345.012 123.544 345.012 120.574C345.012 117.604 342.603 115.196 339.631 115.196Z" fill="#CCCCCC"/>
<path d="M309.513 115.089C307.948 114.18 306.789 112.707 306.273 110.971C305.964 109.876 305.888 108.728 306.049 107.601C306.21 106.474 306.604 105.393 307.207 104.427H304.842C303.46 104.492 302.157 105.087 301.202 106.089C300.247 107.09 299.714 108.421 299.714 109.806C299.714 111.19 300.247 112.521 301.202 113.523C302.157 114.524 303.46 115.119 304.842 115.184H309.407L309.513 115.089Z" fill="#B5B4B4"/>
<path d="M306.049 121.645C305.915 120.364 306.157 119.072 306.745 117.927C307.333 116.782 308.241 115.833 309.36 115.196H304.795C303.413 115.261 302.11 115.856 301.155 116.857C300.2 117.859 299.667 119.19 299.667 120.574C299.667 121.958 300.2 123.289 301.155 124.291C302.11 125.292 303.413 125.887 304.795 125.952H308.165C306.93 124.844 306.172 123.3 306.049 121.645Z" fill="#B5B4B4"/>
<path d="M311.216 19.8664L306.486 15.1331C306.116 14.6985 305.66 14.345 305.148 14.0949C304.635 13.8447 304.076 13.7034 303.506 13.6796C302.936 13.6559 302.368 13.7503 301.836 13.9569C301.304 14.1635 300.821 14.4778 300.416 14.8802C300.012 15.2826 299.695 15.7643 299.485 16.2951C299.275 16.8259 299.178 17.3944 299.198 17.9648C299.218 18.5353 299.356 19.0954 299.603 19.6099C299.85 20.1245 300.2 20.5825 300.632 20.9551L304.913 25.2388L305.398 25.7239C305.782 26.1085 306.238 26.4136 306.74 26.6218C307.243 26.8299 307.781 26.9371 308.324 26.9371C308.868 26.9371 309.406 26.8299 309.908 26.6218C310.41 26.4136 310.867 26.1085 311.251 25.7239C311.635 25.3393 311.94 24.8827 312.148 24.3802C312.356 23.8777 312.463 23.3391 312.463 22.7952C312.463 22.2513 312.356 21.7127 312.148 21.2102C311.94 20.7076 311.635 20.251 311.251 19.8664H311.216Z" fill="#0016D2"/>
<path d="M318.985 4.44765V14.5178C318.985 19.8428 327.262 19.8547 327.262 14.5178V4.44765C327.262 -0.877348 318.985 -0.889182 318.985 4.44765Z" fill="#0016D2"/>
<path d="M346.159 14.9557C345.372 14.1985 344.323 13.7756 343.232 13.7756C342.141 13.7756 341.092 14.1985 340.305 14.9557L335.055 20.0203C334.279 20.7971 333.843 21.8506 333.843 22.9491C333.843 24.0476 334.279 25.1011 335.055 25.8778C335.831 26.6546 336.884 27.091 337.982 27.091C339.079 27.091 340.132 26.6546 340.908 25.8778L346.159 20.8132C346.926 20.0319 347.357 18.9801 347.357 17.8844C347.357 16.7887 346.926 15.7369 346.159 14.9557Z" fill="#0016D2"/>
<path d="M210.857 137.241L194.03 127.337L223.995 107.765L239.899 114.072" fill="#3129A3"/>
<path d="M210.857 135.549C210.585 134.283 218.993 110.604 218.993 110.604L253.628 90.902L242.986 117.882L210.798 137.229L210.857 135.549Z" fill="#0016D2"/>
<path d="M234.047 118.213C235.015 116.17 234.963 114.117 233.931 113.626C232.898 113.136 231.276 114.395 230.307 116.438C229.339 118.481 229.391 120.534 230.423 121.025C231.456 121.515 233.078 120.256 234.047 118.213Z" fill="#3129A3"/>
<path d="M199.671 133.833L204.649 131.999C204.649 131.999 208.894 130.283 209.887 131.064C210.881 131.845 206.163 134.271 205.24 134.875C204.318 135.478 212.524 136.141 213.116 136.898C213.707 137.656 213.045 138.366 212.347 138.59C211.649 138.815 214.121 139.253 213.328 140.436C213.046 140.772 212.673 141.02 212.253 141.15C211.834 141.28 211.387 141.287 210.963 141.17C210.963 141.17 212.075 142.732 210.845 143.395C209.615 144.057 200.439 142.555 198.464 141.028C196.49 139.502 197.116 134.804 199.671 133.833Z" fill="#F67770"/>
<path d="M198.76 141.549C198.76 141.549 205.264 145.797 206.257 144.838C207.251 143.88 205.56 141.288 205.56 141.288C205.56 141.288 199.091 139.36 198.086 139.62C197.081 139.88 198.76 141.549 198.76 141.549Z" fill="#F67770"/>
<path d="M175.11 82.2755C175.11 82.2755 167.01 98.7593 172.568 111.587C178.126 124.414 194.799 139.549 194.799 139.549L199.47 131.266L187.113 105.327" fill="#42210B"/>
<path d="M151.472 67.7678V70.8682L72.7411 116.462L46.667 100.96V98.1203" fill="#739BE0"/>
<path d="M151.472 67.7679L125.552 52.9644L46.667 98.1204L73.0131 113.338L151.472 67.7679Z" fill="#A4C0FF"/>
<path d="M113.112 52.1834C114.542 50.7752 114.424 50.29 114.601 48.4322C116.517 47.7459 119.473 46.1484 122.335 46.3495C124.381 46.4915 127.065 47.8997 128.697 48.4322C129.572 51.3314 130.14 52.8105 132.918 54.2779C133.559 54.6016 134.218 54.8861 134.893 55.1299C135.691 55.4234 136.363 55.9847 136.795 56.7183C137.226 57.4519 137.39 58.3124 137.258 59.1532C136.43 64.4782 133.332 73.5544 121.886 73.5544C109.387 73.5544 107.424 63.0109 107.187 57.9817C107.164 57.4973 107.273 57.0157 107.502 56.5884C107.731 56.1611 108.072 55.8042 108.488 55.5559C110.155 54.6161 111.707 53.4842 113.112 52.1834Z" fill="#0016D2"/>
<path d="M121.649 51.0473C125.542 51.0473 128.697 49.8659 128.697 48.4085C128.697 46.9511 125.542 45.7697 121.649 45.7697C117.757 45.7697 114.602 46.9511 114.602 48.4085C114.602 49.8659 117.757 51.0473 121.649 51.0473Z" fill="#200904"/>
<path d="M129.17 40.3499C128.342 43.5213 127.763 46.7754 127.266 49.9941C127.046 50.1203 126.821 50.2387 126.592 50.3491L125.575 50.6686L125.126 50.7751C125.657 47.0679 126.379 43.3907 127.29 39.7583C127.29 39.5689 127.207 39.3796 127.16 39.1903C126.238 38.1608 124.889 36.3739 126.297 35.5219C127.148 35.0131 127.798 35.5219 128.271 36.3739C129.583 32.048 131.68 28.0006 134.456 24.4341C133.711 23.0614 133.9 20.8841 134.066 19.4404C134.231 17.9968 134.692 16.0561 136.088 15.4644C136.277 15.3674 136.492 15.3301 136.703 15.3576C136.914 15.3851 137.112 15.476 137.27 15.6183C138.063 16.3638 137.968 17.7246 137.968 18.7186C137.968 19.4168 137.968 20.1149 137.968 20.8013C138.465 20.3753 138.961 19.9374 139.505 19.5351C139.957 17.6451 141.053 15.9716 142.603 14.8018C143.703 14.0444 145.761 13.1806 146.86 14.3876C149.45 17.2158 142.875 20.4226 141.042 21.1326C140.915 21.1853 140.778 21.2095 140.64 21.2036C139.941 21.7526 139.27 22.3372 138.63 22.9549C139.753 22.6425 140.925 22.5501 142.083 22.6828C143.419 22.8484 145.56 23.4874 145.832 25.0494C146.47 28.8479 137.684 27.0848 135.969 26.6114C135.797 26.5656 135.641 26.4711 135.52 26.3393C134.459 27.7345 133.522 29.2193 132.718 30.7768C133.77 30.2234 134.926 29.8969 136.111 29.8183C137.353 29.7473 139.659 29.8183 140.321 31.0963C141.078 32.6346 139.233 33.5576 138.086 33.9363C136.041 34.4832 133.913 34.6516 131.807 34.4333C131.562 34.4266 131.328 34.3248 131.157 34.1493C130.696 35.3326 130.305 36.5159 129.974 37.6993C131.996 36.2674 135.615 35.6758 137.069 37.6993C137.159 37.8518 137.206 38.0254 137.206 38.2022C137.206 38.379 137.159 38.5526 137.069 38.7051C136.632 39.6163 135.213 39.7583 134.349 39.9949C132.967 40.3604 131.565 40.6527 130.152 40.8706C129.955 40.8869 129.759 40.8465 129.585 40.7542C129.411 40.6619 129.267 40.5216 129.17 40.3499Z" fill="#3129A3"/>
<path d="M131.701 25.9252C132.706 25.1087 134.066 23.5585 133.108 22.2332C132.15 20.9078 130.246 21.961 129.217 22.5763C128.519 22.9994 127.899 23.5398 127.384 24.1738C127.987 22.032 128.567 19.902 129.347 17.7957C129.826 17.9402 130.33 17.9858 130.827 17.9295C131.324 17.8733 131.805 17.7164 132.239 17.4685C132.674 17.2205 133.054 16.8867 133.356 16.4872C133.657 16.0878 133.875 15.6312 133.995 15.145C134.55 12.873 133.995 10.0093 131.476 9.22834C130.457 8.89785 129.353 8.94271 128.364 9.35483C127.374 9.76696 126.565 10.5192 126.081 11.476C125.598 12.4327 125.471 13.5309 125.726 14.5725C125.98 15.6142 126.597 16.5306 127.467 17.1567C127.053 18.34 126.687 19.5233 126.285 20.7067C125.993 19.5474 125.505 18.4468 124.842 17.4525C123.872 16.0325 122.477 14.4942 120.632 15.0858C120.501 15.1262 120.379 15.1939 120.275 15.2844C120.171 15.3749 120.088 15.4863 120.03 15.6113C119.972 15.7363 119.941 15.8722 119.938 16.01C119.936 16.1478 119.963 16.2845 120.017 16.4112C120.337 19.8783 122.382 22.458 124.747 24.8602C124.826 24.9396 124.918 25.0038 125.019 25.0495C124.676 26.3393 124.405 27.6528 124.109 28.9427C123.612 25.9607 122.477 22.5053 119.769 23.736C115.973 25.4518 120.952 31.4277 122.382 33.0843C122.483 33.1866 122.606 33.2643 122.741 33.3115C122.876 33.3587 123.021 33.3741 123.163 33.3565C122.048 39.2134 121.388 45.1477 121.188 51.1065C121.531 51.1065 121.874 51.1065 122.217 51.1065C122.56 51.1065 122.867 51.1065 123.187 51.1065C123.362 46.1925 123.856 41.2951 124.665 36.445H124.724C125.948 35.862 127.086 35.1134 128.106 34.2203C128.851 33.392 129.832 32.0667 129.288 30.907C129.126 30.6579 128.916 30.4442 128.669 30.2788C128.423 30.1133 128.145 29.9995 127.854 29.9442C127.562 29.8889 127.262 29.8933 126.972 29.9571C126.682 30.0209 126.408 30.1427 126.166 30.3153C126.06 30.3745 125.965 30.4573 125.871 30.5283C126.025 29.842 126.143 29.1557 126.308 28.4812C126.383 28.4899 126.458 28.4899 126.533 28.4812C128.434 28.053 130.206 27.1767 131.701 25.9252ZM130.518 11.0152C132.162 11.2992 132.41 13.2635 132.067 14.5652C131.724 15.8668 130.388 16.0798 129.17 15.6302C129.049 15.6063 128.924 15.6063 128.803 15.6302C126.746 14.1273 127.775 10.53 130.53 11.0152H130.518Z" fill="#3129A3"/>
<path d="M92.0159 18.7896C93.1343 18.565 94.2942 18.6792 95.3474 19.1176C96.4006 19.5561 97.2992 20.2988 97.9284 21.251C98.0552 21.2799 98.173 21.3391 98.2719 21.4236C98.3707 21.5081 98.4476 21.6154 98.496 21.7361C98.9927 21.9846 99.442 22.2686 99.9032 22.529C99.4348 21.6723 99.1432 20.7301 99.0457 19.7585C98.9481 18.7868 99.0467 17.8054 99.3356 16.8726C99.3986 16.6919 99.5125 16.5331 99.6636 16.4156C99.8146 16.298 99.9964 16.2266 100.187 16.21C100.304 16.1848 100.425 16.1833 100.543 16.2057C100.661 16.228 100.773 16.2738 100.873 16.3401L101.003 16.423C101.936 17.3797 102.621 18.5512 102.996 19.8346C103.371 21.1179 103.426 22.4739 103.155 23.7833C103.124 24.0137 103.016 24.2267 102.848 24.3868C111.444 30.5638 115.95 40.5985 118.457 50.929C117.695 50.7723 116.953 50.5302 116.245 50.2071C113.786 40.7405 109.552 31.7235 101.677 26.0316C100.494 28.4693 97.8102 29.2858 95.256 29.487C95.1208 29.5056 94.9831 29.4905 94.8552 29.443C94.7273 29.3955 94.6131 29.3171 94.5228 29.2148C94.2657 29.0986 94.0653 28.885 93.9655 28.6209C93.8657 28.3569 93.8748 28.064 93.9907 27.8066C94.6723 26.7685 95.6366 25.9473 96.7696 25.44C97.5372 24.972 98.376 24.6323 99.2528 24.4341C98.5354 24.016 97.7944 23.6216 97.0297 23.2508C95.9263 23.2139 94.8463 22.9224 93.874 22.3989C92.9018 21.8755 92.0635 21.1344 91.4247 20.2333C91.3532 20.1021 91.3119 19.9566 91.3038 19.8074C91.2956 19.6582 91.3207 19.5091 91.3773 19.3708C91.434 19.2326 91.5206 19.1087 91.6311 19.0081C91.7416 18.9076 91.873 18.833 92.0159 18.7896Z" fill="#3129A3"/>
<path d="M107.175 21.0025C107.281 20.884 107.416 20.7944 107.566 20.7422C107.788 20.6123 108.053 20.573 108.303 20.6324C108.554 20.6919 108.773 20.8456 108.914 21.0617C110.38 23.2509 110.096 27.2624 108.748 29.4279C108.646 29.579 108.506 29.7003 108.342 29.7794C108.178 29.8585 107.996 29.8926 107.814 29.8781C107.632 29.8637 107.458 29.8012 107.308 29.6972C107.159 29.5931 107.039 29.4512 106.963 29.2859C106.794 29.177 106.663 29.0205 106.584 28.8362C105.52 26.2447 105.165 23.2035 107.175 21.0025Z" fill="#3129A3"/>
<path d="M112.686 27.4044C112.792 27.2858 112.926 27.1962 113.076 27.1441C113.299 27.0141 113.563 26.9748 113.814 27.0343C114.065 27.0937 114.284 27.2474 114.424 27.4636C115.891 29.6527 115.607 33.6642 114.259 35.8297C114.157 35.9808 114.017 36.1021 113.853 36.1812C113.689 36.2603 113.506 36.2944 113.325 36.28C113.143 36.2655 112.969 36.2031 112.819 36.099C112.669 35.995 112.55 35.853 112.473 35.6877C112.305 35.5789 112.174 35.4223 112.095 35.2381C111.054 32.6584 110.676 29.6172 112.686 27.4044Z" fill="#3129A3"/>
<path d="M99.1817 32.4453C99.045 32.3647 98.9311 32.2507 98.8506 32.1139C98.6735 31.9271 98.5747 31.6793 98.5747 31.4217C98.5747 31.1641 98.6735 30.9163 98.8506 30.7294C100.719 28.8716 104.704 28.3628 107.128 29.2976C107.294 29.3695 107.439 29.484 107.547 29.6296C107.655 29.7752 107.722 29.9467 107.743 30.1268C107.763 30.3069 107.735 30.4892 107.663 30.6553C107.59 30.8214 107.475 30.9653 107.329 31.0726C107.254 31.2553 107.126 31.4117 106.963 31.5223C104.645 33.0488 101.736 34.0073 99.1817 32.4453Z" fill="#3129A3"/>
<path d="M103.462 36.8C103.356 36.6787 103.282 36.532 103.249 36.374C103.147 36.1362 103.141 35.8683 103.231 35.6259C103.322 35.3835 103.502 35.1852 103.734 35.0723C106.099 33.889 110.037 34.6463 112.012 36.2556C112.148 36.3752 112.25 36.5287 112.308 36.7005C112.366 36.8724 112.378 37.0565 112.342 37.2342C112.306 37.412 112.223 37.577 112.103 37.7127C111.983 37.8484 111.829 37.9499 111.657 38.007C111.527 38.1608 111.354 38.2721 111.16 38.3265C108.452 39.072 105.39 39.0601 103.462 36.8Z" fill="#3129A3"/>
<path d="M108.074 55.8162C110.546 57.674 113.384 58.2538 116.612 58.7035C118.445 58.9638 122.17 60.4075 121.342 62.431C121.153 62.8807 120.254 63.2357 119.935 63.6143C119.38 64.1058 118.971 64.7403 118.752 65.4485C118.338 67.4957 120.242 68.9985 122.028 69.4127C123.619 69.5846 125.228 69.4316 126.758 68.963C127.716 68.7973 130.423 67.9217 131.263 68.5962C131.68 68.9099 132.019 69.3146 132.256 69.7795C130.85 71.0547 129.206 72.0386 127.418 72.6743C125.63 73.31 123.733 73.585 121.839 73.4833C109.339 73.4833 107.377 62.9398 107.14 57.9107C107.13 57.5139 107.209 57.12 107.37 56.7576C107.532 56.3952 107.772 56.0735 108.074 55.8162Z" fill="#3129A3"/>
<path d="M80.522 49.3788L84.8736 46.9175L107.176 59.8868L106.513 88.0856L102.457 90.6416" fill="#F2F2F2"/>
<path d="M102.457 62.4665V90.6416L80.522 78.6781V49.3788L102.457 62.4665Z" fill="#0016D2"/>
<path d="M73.6396 53.7454L78.0031 51.2841L100.293 64.2534L99.6428 92.4522L95.575 94.9964" fill="#F2F2F2"/>
<path d="M95.575 66.833V94.9964L73.6396 83.0447V53.7454L95.575 66.833Z" fill="#0016D2"/>
<defs>
<linearGradient id="paint0_linear_61_1017" x1="177.688" y1="287.738" x2="201.937" y2="215.02" gradientUnits="userSpaceOnUse">
<stop stop-color="#FFC49E"/>
<stop offset="1" stop-color="#F15A24"/>
</linearGradient>
<linearGradient id="paint1_linear_61_1017" x1="145.5" y1="289.3" x2="168.612" y2="220.025" gradientUnits="userSpaceOnUse">
<stop stop-color="#FFC49E"/>
<stop offset="1" stop-color="#F15A24"/>
</linearGradient>
<linearGradient id="paint2_linear_61_1017" x1="273.471" y1="281.738" x2="295.386" y2="216.037" gradientUnits="userSpaceOnUse">
<stop stop-color="#FFC49E"/>
<stop offset="1" stop-color="#F15A24"/>
</linearGradient>
</defs>
</svg>
