<svg width="27" height="27" viewBox="0 0 27 27" fill="none" xmlns="http://www.w3.org/2000/svg">
<circle cx="12.0466" cy="13.6383" r="1" fill="#0016D2"/>
<path d="M16.0466 13.6383C16.0466 17.1375 15.4994 20.2603 14.6488 22.4717C14.2223 23.5808 13.7388 24.4097 13.253 24.9439C12.7674 25.4779 12.3583 25.6383 12.0466 25.6383C11.7349 25.6383 11.3258 25.4779 10.8403 24.9439C10.3544 24.4097 9.871 23.5808 9.44444 22.4717C8.59389 20.2603 8.04663 17.1375 8.04663 13.6383C8.04663 10.1391 8.59389 7.01633 9.44444 4.8049C9.871 3.69585 10.3544 2.86696 10.8403 2.33268C11.3258 1.79869 11.7349 1.63831 12.0466 1.63831C12.3583 1.63831 12.7674 1.79869 13.253 2.33268C13.7388 2.86696 14.2223 3.69585 14.6488 4.8049C15.4994 7.01633 16.0466 10.1391 16.0466 13.6383Z" stroke="#0016D2" stroke-width="2"/>
<path d="M14.3447 17.2757C11.3178 19.0233 8.33307 20.0901 5.97978 20.4292C4.80017 20.5991 3.83177 20.5785 3.11496 20.4077C2.40098 20.2376 2.02964 19.9453 1.85244 19.6384C1.67524 19.3315 1.60778 18.8637 1.81744 18.1604C2.02794 17.4542 2.49431 16.6052 3.2313 15.6686C4.70158 13.8002 7.11781 11.7487 10.1447 10.0011C13.1717 8.2535 16.1564 7.18671 18.5097 6.84765C19.6893 6.6777 20.6577 6.69829 21.3745 6.86907C22.0885 7.03919 22.4598 7.33148 22.6371 7.6384C22.8143 7.94533 22.8817 8.41306 22.672 9.11644C22.4616 9.82261 21.9952 10.6716 21.2582 11.6082C19.7879 13.4766 17.3717 15.5281 14.3447 17.2757Z" stroke="#0016D2" stroke-width="2"/>
<path d="M14.3447 10.0008C11.3178 8.25324 8.33307 7.18645 5.97978 6.8474C4.80017 6.67744 3.83177 6.69803 3.11496 6.86882C2.40098 7.03893 2.02964 7.33123 1.85244 7.63815C1.67524 7.94507 1.60778 8.41281 1.81744 9.11619C2.02794 9.82236 2.49431 10.6713 3.2313 11.6079C4.70158 13.4764 7.11781 15.5279 10.1447 17.2755C13.1717 19.0231 16.1564 20.0898 18.5097 20.4289C19.6893 20.5989 20.6577 20.5783 21.3745 20.4075C22.0885 20.2374 22.4598 19.9451 22.6371 19.6381C22.8143 19.3312 22.8817 18.8635 22.672 18.1601C22.4616 17.4539 21.9952 16.605 21.2582 15.6684C19.7879 13.7999 17.3717 11.7484 14.3447 10.0008Z" stroke="#0016D2" stroke-width="2"/>
</svg>
