<svg width="30" height="30" viewBox="0 0 30 30" fill="none" xmlns="http://www.w3.org/2000/svg">
<path d="M4.10335 26.0292C6.67648 28.5901 10.3176 28.5658 13.1213 25.7621L16.8353 22.036L21.5567 17.3267L25.2708 13.6127C28.0744 10.809 28.0987 7.16781 25.5377 4.59473C22.9647 2.03377 19.3235 2.04589 16.5198 4.84957L12.8058 8.57576L8.08438 13.2972L4.37036 16.999C1.56668 19.8149 1.54239 23.4561 4.10335 26.0292ZM21.5689 13.0787L17.0417 8.56359C16.7747 8.29658 16.5076 8.0781 16.2406 7.90819L17.8792 6.25752C19.8333 4.30344 22.3942 4.03643 24.2512 5.86913C26.1204 7.71399 25.829 10.2992 23.875 12.2412L22.2243 13.8919C22.0544 13.6249 21.8359 13.3579 21.5689 13.0787ZM15.925 10.0322L20.1003 14.2075C20.7921 14.8993 20.7193 15.409 19.9911 16.1251L15.6338 20.4824C14.9177 21.2106 14.4079 21.2835 13.7161 20.5917L9.54085 16.4164C8.84899 15.7246 8.92186 15.2027 9.65007 14.4866L14.0074 10.1414C14.7235 9.41324 15.2332 9.34038 15.925 10.0322ZM14.8084 13.9526C15.4031 13.9526 15.8401 13.4914 15.8401 12.9331C15.8644 12.3747 15.391 11.9014 14.8206 11.9014C14.2501 11.9014 13.8011 12.3747 13.8011 12.9573C13.8011 13.4792 14.2744 13.9526 14.8084 13.9526ZM12.4781 16.3314C13.0243 16.3314 13.4855 15.846 13.4855 15.3241C13.4855 14.7415 13.0243 14.2803 12.4659 14.2803C11.8834 14.2803 11.4342 14.7415 11.4342 15.3119C11.4342 15.8702 11.8712 16.3314 12.4781 16.3314ZM17.1752 16.3314C17.7456 16.3314 18.219 15.8581 18.2069 15.2998C18.2069 14.7415 17.7578 14.2803 17.1631 14.2803C16.629 14.2803 16.1557 14.7536 16.1557 15.2755C16.1557 15.8581 16.6047 16.3314 17.1752 16.3314ZM14.8206 18.6982C15.391 18.6982 15.8401 18.237 15.8401 17.6544C15.8401 17.1325 15.391 16.647 14.8327 16.647C14.238 16.647 13.7889 17.1082 13.7889 17.6665C13.7889 18.237 14.238 18.6982 14.8206 18.6982ZM5.38992 24.7426C3.52076 22.8977 3.81206 20.3246 5.76614 18.3706L7.41681 16.7198C7.58677 16.999 7.8052 17.266 8.07221 17.533L12.5994 22.0602C12.8665 22.3273 13.1335 22.5457 13.4005 22.7157L11.762 24.3664C9.80786 26.3083 7.2469 26.5875 5.38992 24.7426Z" fill="#0016D2"/>
</svg>
