<svg width="400" height="300" viewBox="0 0 400 300" fill="none" xmlns="http://www.w3.org/2000/svg">
<path d="M11.5201 194.36L159.52 279.8C163.216 281.934 167.408 283.057 171.675 283.057C175.942 283.057 180.135 281.934 183.83 279.8L388.44 161.66C389.926 160.793 391.158 159.553 392.015 158.061C392.872 156.57 393.323 154.88 393.323 153.16C393.323 151.44 392.872 149.75 392.015 148.259C391.158 146.767 389.926 145.527 388.44 144.66L236.51 56.47C234.568 55.3464 232.364 54.7547 230.12 54.7547C227.876 54.7547 225.672 55.3464 223.73 56.47L11.5201 179C10.175 179.781 9.05854 180.901 8.28246 182.249C7.50638 183.597 7.0979 185.125 7.0979 186.68C7.0979 188.235 7.50638 189.763 8.28246 191.111C9.05854 192.459 10.175 193.579 11.5201 194.36Z" fill="#FFC2A4"/>
<path d="M299.37 154L257.42 179.78L305.53 209.53L354.49 181.39L299.37 154Z" fill="url(#paint0_linear_57_455)"/>
<path d="M283.78 179.53L241.83 205.31L270.33 221.96L312.3 196.3L283.78 179.53Z" fill="url(#paint1_linear_57_455)"/>
<path d="M80.24 184.03L38.3 209.82L121.07 258.16L163.88 233.23L80.24 184.03Z" fill="url(#paint2_linear_57_455)"/>
<path d="M139.15 61.52V95.67L185.38 68.68V36.48L139.15 61.52Z" fill="#FFDDDC"/>
<path d="M157.24 66.08L147.06 72.08C147.06 72.08 144.62 73.6 145.15 75.84C145.68 78.08 147.69 77.52 148.67 77.03C149.65 76.54 173.56 63.52 173.56 63.52C173.56 63.52 175.38 64 174.82 66.72C174.26 69.44 167.29 72.88 167.29 72.88" stroke="#F7931E" stroke-miterlimit="10"/>
<path d="M153.56 67.09C153.546 67.5429 153.653 67.9912 153.87 68.3892C154.086 68.7873 154.404 69.1208 154.792 69.3557C155.179 69.5905 155.622 69.7184 156.075 69.7262C156.528 69.734 156.975 69.6214 157.37 69.4L168.01 63.4C168.403 63.1776 168.731 62.8551 168.959 62.4652C169.187 62.0753 169.308 61.6319 169.31 61.18C169.302 60.7367 169.178 60.3032 168.952 59.9219C168.726 59.5406 168.404 59.2246 168.019 59.0048C167.634 58.785 167.199 58.6691 166.755 58.6682C166.312 58.6674 165.876 58.7817 165.49 59L154.85 65C154.477 65.2123 154.163 65.515 153.938 65.8802C153.713 66.2454 153.583 66.6614 153.56 67.09Z" fill="#F9635C"/>
<path d="M153.56 78.74C153.546 79.1929 153.653 79.6412 153.87 80.0392C154.086 80.4373 154.404 80.7708 154.792 81.0056C155.179 81.2405 155.622 81.3684 156.075 81.3762C156.528 81.384 156.975 81.2714 157.37 81.05L168.01 75.05C168.403 74.8276 168.731 74.5051 168.959 74.1152C169.187 73.7253 169.308 73.2819 169.31 72.83C169.309 72.3839 169.192 71.9457 168.97 71.5589C168.748 71.1721 168.428 70.85 168.043 70.6247C167.658 70.3994 167.221 70.2785 166.775 70.2742C166.329 70.2699 165.889 70.3822 165.5 70.6L154.86 76.6C154.478 76.8155 154.158 77.1255 153.93 77.5002C153.703 77.8749 153.575 78.3018 153.56 78.74Z" fill="#F9635C"/>
<path d="M299.8 151.45V144.45L296.23 145.45C296.23 145.45 298.59 151.35 299.8 151.45Z" fill="#E75A59"/>
<path d="M70.8201 187.83V180.23L74.5201 183.93C74.5201 183.93 74.7301 187.81 70.8201 187.83Z" fill="#E75A59"/>
<path d="M73.7 182.7L212.9 102.83C214.386 101.969 216.073 101.515 217.79 101.515C219.507 101.515 221.194 101.969 222.68 102.83L297 146.34C297.868 146.844 298.588 147.567 299.088 148.436C299.589 149.306 299.852 150.292 299.852 151.295C299.852 152.298 299.589 153.284 299.088 154.154C298.588 155.023 297.868 155.746 297 156.25L159.22 235.93C157.241 237.073 154.994 237.668 152.709 237.654C150.424 237.64 148.184 237.017 146.22 235.85L73.6201 192.6C72.7588 192.089 72.0466 191.36 71.5546 190.488C71.0627 189.615 70.808 188.629 70.8161 187.627C70.8242 186.625 71.0947 185.643 71.6008 184.779C72.1068 183.914 72.8306 183.198 73.7 182.7Z" fill="#E75A59"/>
<path d="M73.7 176.41L212.9 96.54C214.386 95.6787 216.073 95.2251 217.79 95.2251C219.507 95.2251 221.194 95.6787 222.68 96.54L297 140C297.868 140.504 298.588 141.227 299.088 142.096C299.589 142.966 299.852 143.952 299.852 144.955C299.852 145.958 299.589 146.944 299.088 147.814C298.588 148.683 297.868 149.406 297 149.91L159.22 229.64C157.241 230.783 154.994 231.378 152.709 231.364C150.424 231.35 148.184 230.727 146.22 229.56L73.6201 186.31C72.7588 185.798 72.0466 185.07 71.5546 184.198C71.0627 183.325 70.808 182.339 70.8161 181.337C70.8242 180.335 71.0947 179.353 71.6008 178.489C72.1068 177.624 72.8306 176.908 73.7 176.41Z" fill="#FFDDDC"/>
<path d="M209.52 106.52C210.29 106.78 280.6 147.79 280.6 147.79L163.15 216.59L92.1499 175.59L209.52 106.52Z" fill="white"/>
<path d="M132.85 210.08C133.069 209.952 133.258 209.78 133.406 209.575C133.554 209.369 133.658 209.135 133.71 208.887C133.761 208.639 133.761 208.383 133.707 208.136C133.654 207.888 133.549 207.655 133.4 207.45C132.407 206.411 131.252 205.54 129.98 204.87C128.78 204.12 127.53 203.47 126.31 202.75L116.85 197.21L109.09 192.67C108.581 192.355 108.008 192.158 107.412 192.094C106.817 192.03 106.215 192.1 105.65 192.3C104.838 192.585 104.138 193.121 103.65 193.83C103.528 194.032 103.45 194.258 103.421 194.492C103.393 194.727 103.415 194.965 103.486 195.19C103.557 195.415 103.675 195.623 103.833 195.799C103.991 195.974 104.184 196.115 104.4 196.21L118.7 204.49L124.86 208.06L128.42 210.14C128.963 210.465 129.57 210.666 130.199 210.73C130.828 210.794 131.463 210.719 132.06 210.51C132.343 210.405 132.609 210.261 132.85 210.08Z" fill="#E75A59"/>
<path d="M97.51 190.75C98.8797 190.75 99.99 189.832 99.99 188.7C99.99 187.568 98.8797 186.65 97.51 186.65C96.1404 186.65 95.03 187.568 95.03 188.7C95.03 189.832 96.1404 190.75 97.51 190.75Z" fill="#E75A59"/>
<path d="M326.81 171.7C343.71 171.7 357.41 158 357.41 141.1C357.41 124.2 343.71 110.5 326.81 110.5C309.91 110.5 296.21 124.2 296.21 141.1C296.21 158 309.91 171.7 326.81 171.7Z" fill="#0016D2"/>
<path opacity="0.1" d="M345.43 116.82C346.519 119.326 347.298 121.955 347.75 124.65C350.52 141.4 339.24 158.27 322.85 162.51C317.178 163.914 311.274 164.112 305.52 163.09C308.515 165.981 312.068 168.23 315.963 169.701C319.857 171.171 324.01 171.831 328.169 171.641C332.327 171.451 336.403 170.414 340.146 168.595C343.89 166.776 347.224 164.211 349.942 161.059C352.661 157.907 354.708 154.234 355.958 150.263C357.209 146.293 357.636 142.109 357.213 137.968C356.791 133.827 355.528 129.815 353.502 126.179C351.476 122.543 348.729 119.358 345.43 116.82Z" fill="black"/>
<path d="M348.83 186.96C358.418 186.96 366.19 179.188 366.19 169.6C366.19 160.012 358.418 152.24 348.83 152.24C339.242 152.24 331.47 160.012 331.47 169.6C331.47 179.188 339.242 186.96 348.83 186.96Z" fill="#0016D2"/>
<path opacity="0.1" d="M359.4 155.82C360.019 157.241 360.462 158.732 360.72 160.26C361.393 164.948 360.327 169.72 357.724 173.677C355.121 177.634 351.161 180.501 346.59 181.74C343.373 182.537 340.024 182.649 336.76 182.07C338.459 183.711 340.475 184.989 342.685 185.824C344.894 186.659 347.251 187.035 349.611 186.928C351.971 186.82 354.284 186.232 356.409 185.2C358.534 184.168 360.426 182.712 361.969 180.924C363.511 179.135 364.673 177.05 365.382 174.796C366.091 172.543 366.333 170.168 366.092 167.818C365.852 165.468 365.134 163.192 363.984 161.129C362.833 159.066 361.273 157.259 359.4 155.82Z" fill="black"/>
<path d="M296.394 177.247C298.707 171.779 296.941 165.806 292.45 163.906C287.958 162.006 282.442 164.899 280.129 170.367C277.816 175.834 279.582 181.807 284.073 183.707C288.564 185.607 294.081 182.715 296.394 177.247Z" fill="#792155"/>
<path d="M293.76 164.55L298.17 167.75L287.19 186.14L282.87 183.01" fill="#792155"/>
<path d="M300.458 180.13C302.771 174.662 301.005 168.689 296.514 166.789C292.023 164.889 286.507 167.781 284.193 173.249C281.88 178.717 283.646 184.69 288.137 186.59C292.629 188.49 298.145 185.598 300.458 180.13Z" fill="#995F85"/>
<path d="M297.857 179.03C299.144 175.988 298.158 172.664 295.656 171.606C293.153 170.547 290.081 172.155 288.795 175.196C287.508 178.238 288.494 181.562 290.996 182.621C293.499 183.679 296.57 182.072 297.857 179.03Z" fill="#792155"/>
<path d="M317.31 187.53C315.65 186.93 314.04 185.53 312.58 184.53C309.76 182.683 306.95 180.817 304.15 178.93L300.24 176.3C299.318 175.503 298.312 174.809 297.24 174.23C295.03 173.36 292.55 175.69 292.09 177.73C291.887 178.45 291.845 179.205 291.966 179.943C292.087 180.681 292.368 181.383 292.79 182C293.71 183.17 295.24 183.73 296.44 184.55L300.44 187.29L308.13 192.51L310.01 193.78" fill="#A87398"/>
<path d="M312.768 187.931C315.081 182.464 313.315 176.491 308.823 174.591C304.332 172.691 298.816 175.583 296.503 181.051C294.19 186.519 295.956 192.492 300.447 194.392C304.938 196.292 310.454 193.399 312.768 187.931Z" fill="#792155"/>
<path d="M310.13 175.23L314.54 178.43L303.57 196.82L299.24 193.69" fill="#792155"/>
<path d="M316.836 190.805C319.149 185.337 317.383 179.364 312.892 177.464C308.4 175.564 302.884 178.457 300.571 183.925C298.258 189.393 300.024 195.365 304.515 197.265C309.006 199.165 314.522 196.273 316.836 190.805Z" fill="#995F85"/>
<path d="M314.231 189.714C315.518 186.673 314.532 183.349 312.03 182.29C309.527 181.231 306.455 182.839 305.169 185.881C303.882 188.922 304.868 192.246 307.37 193.305C309.873 194.364 312.944 192.756 314.231 189.714Z" fill="#792155"/>
<path d="M220.14 101.43L122.74 163.98V176.14L164.65 200.06L264.82 140.51V128.46L220.14 101.43Z" fill="#0016D2"/>
<path opacity="0.1" d="M264.82 128.57L220.14 101.54L122.74 164.09L164.74 187.77L264.82 128.57Z" fill="black"/>
<path d="M259.23 125.33L229.52 107.46L140.16 160.85L168.76 178.28" fill="#4A4A4A"/>
<path d="M185.36 71.9C185.307 71.7682 185.215 71.6552 185.098 71.5751C184.981 71.495 184.842 71.4515 184.7 71.45C184.797 71.7355 184.812 72.0424 184.743 72.3359C184.674 72.6294 184.524 72.8976 184.31 73.11C183.562 73.88 182.672 74.498 181.69 74.93C181.25 75.27 180.79 75.6 180.34 75.93C180.049 76.1349 179.692 76.2208 179.34 76.17C178.975 76.6556 178.52 77.0665 178 77.38C177.238 77.8144 176.521 78.3236 175.86 78.9C175.35 79.35 174.15 80.27 174.51 80.9C174.87 81.53 175.76 81.32 176.64 80.9L176.43 81.16C175.77 81.98 175.43 83.41 176.92 83.46C176.79 83.6999 176.736 83.9735 176.764 84.2448C176.793 84.5162 176.903 84.7725 177.08 84.98C177.92 85.68 178.58 84.98 178.96 84.58C179.12 84.7324 179.314 84.8439 179.527 84.9048C179.739 84.9658 179.963 84.9744 180.18 84.93C180.362 84.8966 180.533 84.8214 180.68 84.7103C180.828 84.5992 180.948 84.4553 181.03 84.29C183.85 85.67 184.88 78.66 185.13 76.02C185.5 74.69 185.89 73.06 185.36 71.9Z" fill="#F9635C"/>
<path d="M179.86 81.51C179.842 81.3615 179.794 81.2183 179.718 81.0892C179.642 80.9602 179.541 80.8481 179.42 80.76C180.16 80.6351 180.831 80.2483 181.31 79.67C181.599 79.2816 181.782 78.825 181.841 78.3448C181.901 77.8646 181.835 77.3772 181.65 76.93C181.629 76.8756 181.587 76.8319 181.533 76.8085C181.48 76.785 181.419 76.7838 181.365 76.805C181.311 76.8262 181.267 76.8682 181.243 76.9216C181.22 76.9751 181.219 77.0356 181.24 77.09C181.41 77.4965 181.462 77.9424 181.391 78.3771C181.321 78.8119 181.13 79.2181 180.84 79.55C180.238 80.1055 179.458 80.4282 178.64 80.46H178.56C178.564 80.4101 178.564 80.3599 178.56 80.31C178.2 79.24 176.95 80.05 176.56 80.63C176.4 80.86 176.74 81.14 176.91 80.91C177.08 80.68 177.45 80.22 177.83 80.24C178.56 80.24 177.91 81.41 177.83 81.62C177.532 82.2196 177.198 82.8007 176.83 83.36C176.67 83.6 177.02 83.88 177.18 83.64C177.58 83.0494 177.944 82.4349 178.27 81.8C178.429 81.5251 178.556 81.2333 178.65 80.93C180.47 80.99 179.23 83.36 178.84 84.32C178.73 84.58 179.14 84.77 179.25 84.5C179.632 83.6902 179.888 82.827 180.01 81.94C180.66 81.83 181.42 81.94 181.31 82.78C181.213 83.2695 181.069 83.7484 180.88 84.21C180.79 84.48 181.2 84.66 181.29 84.39C181.51 83.71 181.97 82.82 181.68 82.1C181.39 81.38 180.49 81.41 179.86 81.51Z" fill="#111224"/>
<path d="M227.22 98.58L237.22 99.96C237.22 99.96 239.42 99.75 239.83 96.85C240.24 93.95 238.42 93.9 238.42 93.9L229.1 91.13" fill="#F9635C"/>
<path d="M238.05 91.82C237.35 91.82 236.42 93.08 236.38 93.31C236.34 93.54 237.66 93.63 237.66 93.63C239.48 95.26 239.07 97.85 238.66 98.11C238.25 98.37 236.5 96.67 235.93 97.18C235.316 98.138 234.971 99.2431 234.93 100.38C235.04 100.72 237.38 100.38 237.51 100.53C238.99 101.6 240.06 103.94 240.63 105.62C241.2 107.3 241.47 108.67 242.92 109.75C243.316 110.072 243.787 110.288 244.289 110.377C244.791 110.466 245.308 110.426 245.79 110.26C246.79 109.76 247.21 108.31 247.34 107.26C247.67 104.64 246.79 101.92 245.91 99.49C245.196 97.2833 244.271 95.1503 243.15 93.12C242.89 92.71 238.76 91.77 238.05 91.82Z" fill="#C4CBFB"/>
<path d="M186.16 134.6V144.11C186.414 144.888 186.912 145.563 187.58 146.035C188.249 146.507 189.052 146.751 189.87 146.73C190.638 146.764 191.391 146.506 191.979 146.01C192.566 145.513 192.945 144.813 193.04 144.05L193.8 135.22" fill="#F9635C"/>
<path d="M195.13 143.49C194.95 142.74 193.48 141.95 193.22 141.94C192.96 141.93 193.1 143.38 193.1 143.38C191.66 145.64 188.78 145.65 188.43 145.23C188.08 144.81 189.61 142.64 188.96 142.12C187.816 141.622 186.559 141.439 185.32 141.59C184.97 141.77 185.7 144.24 185.61 144.41C184.72 146.2 182.36 147.77 180.61 148.67C178.86 149.57 177.45 150.11 176.54 151.88C176.263 152.368 176.117 152.919 176.117 153.48C176.117 154.041 176.263 154.592 176.54 155.08C177.26 156.08 178.9 156.28 180.04 156.24C182.93 156.14 185.72 154.71 188.2 153.33C190.463 152.171 192.609 150.798 194.61 149.23C195 148.88 195.31 144.24 195.13 143.49Z" fill="#C4CBFB"/>
<path d="M185.5 59.81C184.33 65.95 182.32 71.46 178.5 76.21C178.73 76.84 180.16 79.74 187.31 79.74L193.73 71.27L185.5 59.81Z" fill="#25018E"/>
<path d="M187.39 75.36C187.39 75.36 178.39 86.36 182.52 96.47C186.24 105.72 212.24 105.07 228.45 102.47C228.45 102.47 235.2 98.21 231.4 91.12C231.4 91.12 210.67 88.12 207.54 87.88" fill="#6D8192"/>
<path d="M189.28 76.86C189.28 76.86 179.45 101.46 179.48 107.16C179.51 112.86 184.01 137.46 184.01 137.46C184.01 137.46 189.4 140.83 196.68 137.46C196.68 137.46 195.75 110.05 196.89 106.15C198.03 102.25 208.27 82.94 202.35 75.36L189.28 76.86Z" fill="#7D97B1"/>
<path d="M187.39 75.36C186.64 74.6 181.99 55.44 185.04 51.22C188.09 47 201.96 54.01 204.04 57.05C206.12 60.09 202.59 73.38 202.33 75.36C202.07 77.34 193 81 187.39 75.36Z" fill="#0016D2"/>
<path d="M198 78.06H197.86C197.087 82.7609 195.95 87.3948 194.46 91.92C192.76 97.06 190.06 101.98 189.21 107.37C188.36 112.76 188.66 118.14 188.73 123.46C188.797 128.607 188.967 133.753 189.24 138.9H189.97C189.703 133.74 189.53 128.577 189.45 123.41C189.38 117.76 188.99 111.79 190.14 106.22C191.24 100.89 193.95 95.95 195.58 90.77C196.888 86.534 197.891 82.2096 198.58 77.83C198.392 77.92 198.198 77.9968 198 78.06Z" fill="white"/>
<path d="M189.75 45.07C189.65 45.57 189.31 53.87 193.36 55.26C197.41 56.65 202.16 48.11 200.19 44.04C198.22 39.97 190.89 39.4 189.75 45.07Z" fill="#F9635C"/>
<path d="M197 46.5C197.68 47.39 197.7 49.72 197.45 50.83C197.399 51.3387 197.399 51.8513 197.45 52.36C197.401 52.8016 197.378 53.2457 197.38 53.69C197.764 53.3871 198.122 53.0526 198.45 52.69C198.519 52.7429 198.601 52.7755 198.688 52.7843C198.774 52.7932 198.862 52.7778 198.94 52.74C199.096 52.6625 199.244 52.5686 199.38 52.46C199.72 52.23 200.12 52.1 200.47 51.89C201.139 51.4204 201.62 50.7299 201.83 49.94C202.172 49.0829 202.384 48.1797 202.46 47.26C202.636 45.431 202.289 43.5896 201.46 41.95C199.27 37.77 193.67 37.68 190.23 40.42C190.4 40.06 190.81 38.97 189.61 39.23C188.18 39.53 187.04 42.42 187.04 42.42C186.83 41.91 187.54 40.53 187.54 40.53C187.54 40.53 185.85 40.83 186.13 43.58C186.41 46.33 189.69 48.02 190.75 45.65C191.81 43.28 192.12 43.59 192.12 43.59C191.04 45.54 192.06 46.96 194.45 47.41C194.917 47.5491 195.415 47.5359 195.874 47.3722C196.332 47.2086 196.727 46.9031 197 46.5Z" fill="#111224"/>
<path d="M198.95 48.89C198.854 48.7071 198.717 48.5486 198.55 48.4265C198.384 48.3044 198.191 48.2219 197.988 48.1852C197.784 48.1486 197.575 48.1588 197.376 48.2151C197.178 48.2714 196.994 48.3722 196.84 48.51C196.39 49.0184 196.05 49.6141 195.84 50.26C195.774 50.4374 195.774 50.6326 195.84 50.81C195.752 50.9727 195.705 51.1549 195.705 51.34C195.705 51.5251 195.752 51.7073 195.84 51.87C195.985 52.1036 196.215 52.2724 196.481 52.3413C196.747 52.4102 197.03 52.3739 197.27 52.24C198.29 51.72 199.66 50.15 198.95 48.89Z" fill="#F9635C"/>
<path d="M197.92 52.94C199.433 52.94 200.66 51.7133 200.66 50.2C200.66 48.6867 199.433 47.46 197.92 47.46C196.407 47.46 195.18 48.6867 195.18 50.2C195.18 51.7133 196.407 52.94 197.92 52.94Z" fill="#C4CBFB"/>
<path d="M191.73 39.38C191.73 39.38 198.46 40.78 197.63 48.77L199.74 48.15C199.74 48.15 201.24 41.31 193.88 38.5C193.476 38.4383 193.062 38.4876 192.683 38.6426C192.305 38.7976 191.975 39.0524 191.73 39.38Z" fill="#C4CBFB"/>
<path d="M200.65 40.78C200.65 40.78 201.24 35.07 205.8 35.17C210.36 35.27 210.07 38.95 213.15 38.95C216.23 38.95 218.72 32.79 222.39 34.58C226.06 36.37 228.65 48.23 219.81 48.76C210.97 49.29 209.47 41.33 207.19 42.48C204.91 43.63 204 47.48 201.03 47.63" fill="#111224"/>
<path d="M211.89 74.6C211.918 74.4392 211.889 74.2735 211.806 74.1325C211.724 73.9915 211.594 73.8843 211.44 73.83C211.92 73.11 210.91 72.08 210.25 72.75C210.01 72.9967 209.763 73.23 209.51 73.45C209.486 73.3376 209.437 73.2321 209.367 73.1411C209.296 73.0501 209.207 72.976 209.104 72.9242C209.002 72.8725 208.889 72.8443 208.774 72.8418C208.659 72.8394 208.545 72.8627 208.44 72.91C208.314 72.8548 208.174 72.8387 208.039 72.8636C207.903 72.8886 207.778 72.9535 207.68 73.05L206 74.5C205.218 74.9766 204.316 75.2195 203.4 75.2C202.584 75.162 201.767 75.2055 200.96 75.33C200.34 75.43 198.96 75.55 198.96 76.19C198.96 76.83 199.73 77.14 200.61 77.28L200.32 77.38C199.39 77.69 198.38 78.48 199.1 79.49C198.913 79.5868 198.768 79.7506 198.696 79.9488C198.624 80.1471 198.629 80.3653 198.71 80.56C199.01 81.56 199.82 81.56 200.59 81.32C200.75 81.71 200.93 82.07 201.37 82.2C201.869 82.2668 202.376 82.1759 202.82 81.94C204.34 84.01 208.17 79.63 209.69 77.7C210.6 76.85 211.73 75.77 211.89 74.6Z" fill="#F9635C"/>
<path d="M217 67.45C216.2 62.67 212.63 59.72 208.48 57.72C206.37 56.72 204.17 55.9 202.02 54.98C200.8 54.46 199.59 53.92 198.39 53.37C198.15 53.26 196.3 52.67 196.25 52.37L198.54 62.75C200.33 63.59 200.23 64.37 202 65.25C203.5 66 206.79 66.77 207.17 68.62C207.246 68.9883 207.263 69.3664 207.22 69.74C207.018 70.5913 206.649 71.394 206.134 72.1013C205.619 72.8086 204.968 73.4064 204.22 73.86C205.623 75.9703 207.224 77.9425 209 79.75C209 79.75 218.21 74.52 217 67.45Z" fill="#0016D2"/>
<path d="M71.79 99.21V133.36L118.03 106.36V74.17L71.79 99.21Z" fill="#FFDDDC"/>
<path d="M96.52 35.78V74.91L149.49 43.98V7.10001L96.52 35.78Z" fill="#FFDDDC"/>
<path d="M109.89 40.16C110.661 39.7709 111.519 39.5856 112.381 39.6216C113.244 39.6577 114.083 39.9139 114.819 40.366C115.555 40.8181 116.163 41.4509 116.585 42.2043C117.007 42.9577 117.229 43.8065 117.23 44.67V49.6C117.229 50.5543 116.958 51.4888 116.448 52.2957C115.939 53.1026 115.211 53.7489 114.35 54.16C113.579 54.528 112.728 54.6949 111.875 54.6451C111.022 54.5953 110.196 54.3305 109.473 53.8752C108.751 53.42 108.155 52.7893 107.742 52.0417C107.328 51.2942 107.111 50.4542 107.11 49.6V44.67C107.111 43.7348 107.372 42.8182 107.863 42.0221C108.353 41.226 109.055 40.5814 109.89 40.16Z" fill="#F9635C"/>
<path d="M116.01 49.16L132.07 40.26V35.15L116.01 44.23V49.16Z" fill="#F9635C"/>
<path d="M132.64 29.83C133.411 29.4362 134.271 29.2472 135.137 29.2809C136.003 29.3146 136.845 29.57 137.584 30.0227C138.322 30.4753 138.932 31.1099 139.355 31.8659C139.778 32.6218 140 33.4737 140 34.34V39.27C139.999 40.2243 139.728 41.1588 139.218 41.9657C138.708 42.7726 137.981 43.4189 137.12 43.83C136.349 44.198 135.498 44.3649 134.645 44.3151C133.792 44.2653 132.966 44.0005 132.243 43.5452C131.52 43.09 130.925 42.4593 130.511 41.7117C130.098 40.9642 129.881 40.1242 129.88 39.27V34.34C129.879 33.4069 130.137 32.4918 130.624 31.6958C131.111 30.8999 131.809 30.2542 132.64 29.83Z" fill="#F9635C"/>
<path d="M88.5901 111.85L102.06 104.39V100.1L88.5901 107.72V111.85Z" fill="#F9635C"/>
<path d="M107.17 95.72C107.17 93.776 105.594 92.2 103.65 92.2C101.706 92.2 100.13 93.776 100.13 95.72V105.35C100.13 107.294 101.706 108.87 103.65 108.87C105.594 108.87 107.17 107.294 107.17 105.35V95.72Z" fill="#F9635C"/>
<path d="M91.02 104.84C91.02 102.896 89.444 101.32 87.5 101.32C85.5559 101.32 83.98 102.896 83.98 104.84V114.47C83.98 116.414 85.5559 117.99 87.5 117.99C89.444 117.99 91.02 116.414 91.02 114.47V104.84Z" fill="#F9635C"/>
<path d="M83.3099 107.96H83.2999C81.9965 107.96 80.9399 109.017 80.9399 110.32V113.37C80.9399 114.673 81.9965 115.73 83.2999 115.73H83.3099C84.6133 115.73 85.6699 114.673 85.6699 113.37V110.32C85.6699 109.017 84.6133 107.96 83.3099 107.96Z" fill="#F9635C"/>
<path d="M108.05 96.22H108.04C106.737 96.22 105.68 97.2766 105.68 98.58V101.63C105.68 102.933 106.737 103.99 108.04 103.99H108.05C109.353 103.99 110.41 102.933 110.41 101.63V98.58C110.41 97.2766 109.353 96.22 108.05 96.22Z" fill="#F9635C"/>
<path d="M145 107.84L168.53 95.84C168.53 95.84 172.53 95.22 173.53 98.01L157.12 107.3L155.47 112.77" fill="#F2F2F2"/>
<path d="M183.57 188.81L201.57 131.45L216.47 123C216.47 123 217.2 120.57 212.82 120.33L192.76 131.39L140.36 103.31C140.36 103.31 136.96 101.85 134.89 105.62L150.09 114.37L136.31 155.26L143.57 150.6L155.09 117L192.29 136.21L195.57 134.39C195.57 134.39 177.57 191.99 177.57 192.39C177.57 192.79 180.84 190.57 183.57 188.81Z" fill="#F2F2F2"/>
<defs>
<linearGradient id="paint0_linear_57_455" x1="284.54" y1="197.11" x2="341.58" y2="153.09" gradientUnits="userSpaceOnUse">
<stop stop-color="#FFC49E"/>
<stop offset="0.99" stop-color="#F9635C"/>
</linearGradient>
<linearGradient id="paint1_linear_57_455" x1="259.76" y1="214.16" x2="305.84" y2="178.59" gradientUnits="userSpaceOnUse">
<stop stop-color="#FFC49E"/>
<stop offset="0.99" stop-color="#FB9773"/>
</linearGradient>
<linearGradient id="paint2_linear_57_455" x1="92.7201" y1="235.8" x2="116.6" y2="195.06" gradientUnits="userSpaceOnUse">
<stop stop-color="#FFC6AD"/>
<stop offset="0.99" stop-color="#FF9068"/>
</linearGradient>
</defs>
</svg>
