<svg width="29" height="27" viewBox="0 0 29 27" fill="none" xmlns="http://www.w3.org/2000/svg">
<path d="M10.7949 19.8327C10.7949 19.8327 9.33334 15.1782 12.0128 12.3725C13.1535 11.4154 14.4064 10.6034 15.7436 9.95471C15.7418 8.77787 16.0732 7.62497 16.6989 6.63158C17.3245 5.63818 18.2184 4.84559 19.2755 4.347C20.3325 3.84842 21.5087 3.66455 22.6658 3.81704C23.8229 3.96952 24.9128 4.45202 25.8073 5.20778C26.7018 5.96355 27.3638 6.96117 27.7153 8.08334C28.0669 9.20551 28.0934 10.4056 27.7918 11.5424C27.4902 12.6793 26.873 13.7057 26.0128 14.5009C25.1526 15.2961 24.0851 15.8271 22.9359 16.0315C20.5898 19.6129 15.4615 26 8.41026 26C4.66667 26 1 14.9584 1 9.95471L1 3.94257C1.00223 3.19598 1.28775 2.47858 1.79795 1.9376C2.30815 1.39662 3.00433 1.07311 3.74359 1.03347C5.96154 0.91711 8.8718 1.03347 9.56411 2.5462C10.6154 4.75712 8.34616 8.72642 5.89744 8.72642C5.89744 10.6658 8.24359 14.8808 10.3718 17.2081" stroke="#0016D2" stroke-width="2" stroke-miterlimit="10"/>
</svg>
