<svg width="31" height="31" viewBox="0 0 31 31" fill="none" xmlns="http://www.w3.org/2000/svg">
<path d="M21 23.3333L24.875 13L28.7513 23.3333C27.6331 24.1717 26.2732 24.6248 24.8756 24.6248C23.4781 24.6248 22.1182 24.1717 21 23.3333Z" stroke="#0016D2" stroke-width="2.3" stroke-linecap="round" stroke-linejoin="round"/>
<path d="M2.58325 20.6666L6.45825 10.3333L10.3345 20.6666C9.21635 21.505 7.85646 21.9582 6.4589 21.9582C5.06133 21.9582 3.70145 21.505 2.58325 20.6666Z" stroke="#0016D2" stroke-width="2.3" stroke-linecap="round" stroke-linejoin="round"/>
<path d="M9.04175 27.125H21.9584" stroke="#0016D2" stroke-width="2" stroke-linecap="round" stroke-linejoin="round"/>
<path d="M15.5 3.875L15.5 27.125" stroke="#0016D2" stroke-width="2.3" stroke-linecap="round" stroke-linejoin="round"/>
<path d="M3.875 9.04165H6.45833C9.04167 9.04165 12.9167 7.74998 15.5 6.45831C18.0833 7.74998 20.9167 11.5 23.5 11.5L26.0833 11.5" stroke="#0016D2" stroke-width="2.3" stroke-linecap="round" stroke-linejoin="round"/>
</svg>
