<svg width="26" height="26" viewBox="0 0 26 26" fill="none" xmlns="http://www.w3.org/2000/svg">
<path d="M15.8097 13.9617C16.6535 13.1179 17.6247 12.4227 18.6819 11.8979C19.5881 11.448 20.6548 11.6667 21.6667 11.6667C23.5076 11.6667 25 10.1743 25 8.33333C25 6.49239 23.5076 5 21.6667 5C21.4081 5 21.1565 5.02943 20.9148 5.08513C20.9705 4.84352 21 4.59187 21 4.33333C21 2.49239 19.5076 1 17.6667 1C15.8257 1 14.3333 2.49239 14.3333 4.33333C14.3333 5.34531 14.5521 6.41225 14.1021 7.31867M12.9316 17C12.5364 17.5292 12.1905 18.0923 11.8979 18.682C11.448 19.5883 11.6667 20.6549 11.6667 21.6667C11.6667 23.5076 10.1743 25 8.33333 25C6.49239 25 5 23.5076 5 21.6667C5 21.4081 5.02943 21.1565 5.08513 20.9149C4.84352 20.9705 4.59187 21 4.33333 21C2.49239 21 1 19.5076 1 17.6667C1 15.8257 2.49239 14.3333 4.33333 14.3333C5.34524 14.3333 6.41209 14.5521 7.31847 14.1023C8.37564 13.5775 9.3468 12.8821 10.1906 12.0384L11.1145 11.1144" stroke="#0016D2" stroke-width="2" stroke-linecap="round" stroke-linejoin="round"/>
</svg>
