<svg width="34" height="39" viewBox="0 0 34 39" fill="none" xmlns="http://www.w3.org/2000/svg">
<path d="M2 13.6667H32.643M8.80955 2V5.88889M25.8334 2V5.88889M7.10716 21.4444H10.5119M7.10716 29.2222H10.5119M15.6191 21.4444H19.0239M15.6191 29.2222H19.0239M24.131 21.4444H27.5358M24.131 29.2222H27.5358M7.44764 37H27.1953C29.1022 37 30.0557 37 30.7839 36.5761C31.4246 36.2034 31.9455 35.6084 32.2718 34.8767C32.643 34.0448 32.643 32.9557 32.643 30.7778V12.1111C32.643 9.93312 32.643 8.84413 32.2718 8.01226C31.9455 7.28051 31.4246 6.68559 30.7839 6.31276C30.0557 5.88889 29.1022 5.88889 27.1953 5.88889H7.44764C5.54079 5.88889 4.58735 5.88889 3.85904 6.31276C3.21838 6.68559 2.69752 7.28051 2.3711 8.01226C2 8.84413 2 9.93312 2 12.1111V30.7778C2 32.9557 2 34.0448 2.3711 34.8767C2.69752 35.6084 3.21838 36.2034 3.85904 36.5761C4.58735 37 5.54078 37 7.44764 37Z" stroke="white" stroke-width="2.4" stroke-linecap="round" stroke-linejoin="round"/>
</svg>
