<svg width="359" height="551" viewBox="0 0 359 551" fill="none" xmlns="http://www.w3.org/2000/svg">
<g id="graph">
<g id="tag-right">
<path id="Health" d="M273.945 539.737V541.692H264.134V539.737H273.945ZM264.507 531.943V550.072H262.104V531.943H264.507ZM276.037 531.943V550.072H273.646V531.943H276.037ZM285.04 550.321C284.102 550.321 283.251 550.163 282.487 549.848C281.732 549.524 281.08 549.072 280.532 548.491C279.993 547.91 279.578 547.221 279.287 546.424C278.997 545.627 278.852 544.755 278.852 543.809V543.286C278.852 542.19 279.013 541.215 279.337 540.36C279.661 539.497 280.101 538.766 280.657 538.169C281.213 537.571 281.844 537.119 282.55 536.811C283.255 536.504 283.986 536.351 284.741 536.351C285.704 536.351 286.534 536.517 287.231 536.849C287.937 537.181 288.514 537.646 288.962 538.243C289.41 538.833 289.742 539.53 289.958 540.335C290.174 541.132 290.282 542.004 290.282 542.95V543.983H280.221V542.103H287.978V541.929C287.945 541.331 287.821 540.75 287.605 540.186C287.397 539.621 287.065 539.156 286.609 538.791C286.152 538.426 285.53 538.243 284.741 538.243C284.218 538.243 283.737 538.355 283.297 538.579C282.857 538.795 282.479 539.119 282.164 539.551C281.848 539.982 281.603 540.509 281.429 541.132C281.255 541.755 281.167 542.473 281.167 543.286V543.809C281.167 544.448 281.255 545.05 281.429 545.614C281.612 546.171 281.873 546.66 282.213 547.084C282.562 547.507 282.981 547.839 283.471 548.08C283.969 548.32 284.533 548.441 285.164 548.441C285.978 548.441 286.667 548.275 287.231 547.943C287.796 547.611 288.29 547.167 288.713 546.61L290.107 547.719C289.817 548.159 289.448 548.578 288.999 548.976C288.551 549.375 287.999 549.698 287.343 549.947C286.696 550.196 285.928 550.321 285.04 550.321ZM300.405 547.768V540.833C300.405 540.302 300.297 539.841 300.081 539.451C299.874 539.053 299.558 538.745 299.135 538.53C298.712 538.314 298.189 538.206 297.566 538.206C296.985 538.206 296.475 538.306 296.035 538.505C295.603 538.704 295.263 538.965 295.014 539.289C294.773 539.613 294.653 539.962 294.653 540.335H292.349C292.349 539.854 292.474 539.376 292.723 538.903C292.972 538.43 293.329 538.003 293.793 537.621C294.267 537.231 294.831 536.923 295.487 536.699C296.151 536.467 296.89 536.351 297.703 536.351C298.683 536.351 299.546 536.517 300.293 536.849C301.048 537.181 301.638 537.683 302.061 538.355C302.493 539.019 302.709 539.854 302.709 540.858V547.133C302.709 547.582 302.746 548.059 302.821 548.565C302.904 549.072 303.024 549.507 303.182 549.873V550.072H300.779C300.662 549.806 300.571 549.453 300.505 549.014C300.438 548.565 300.405 548.15 300.405 547.768ZM300.803 541.904L300.828 543.523H298.5C297.844 543.523 297.259 543.577 296.744 543.684C296.23 543.784 295.798 543.938 295.449 544.145C295.101 544.353 294.835 544.614 294.653 544.93C294.47 545.237 294.379 545.598 294.379 546.013C294.379 546.436 294.474 546.822 294.665 547.171C294.856 547.519 295.142 547.797 295.524 548.005C295.914 548.204 296.392 548.304 296.956 548.304C297.662 548.304 298.284 548.154 298.824 547.856C299.363 547.557 299.791 547.192 300.106 546.76C300.43 546.328 300.604 545.909 300.629 545.502L301.613 546.61C301.555 546.959 301.397 547.345 301.14 547.768C300.882 548.192 300.538 548.599 300.106 548.989C299.683 549.37 299.177 549.69 298.587 549.947C298.006 550.196 297.35 550.321 296.62 550.321C295.707 550.321 294.906 550.142 294.217 549.786C293.536 549.429 293.005 548.951 292.623 548.354C292.25 547.748 292.063 547.071 292.063 546.324C292.063 545.602 292.204 544.967 292.486 544.419C292.768 543.863 293.175 543.402 293.706 543.037C294.238 542.663 294.877 542.381 295.624 542.19C296.371 541.999 297.205 541.904 298.126 541.904H300.803ZM308.324 530.947V550.072H306.009V530.947H308.324ZM317.153 536.6V538.368H309.869V536.6H317.153ZM312.334 533.325H314.638V546.735C314.638 547.192 314.708 547.536 314.849 547.768C314.991 548.001 315.173 548.154 315.397 548.229C315.621 548.304 315.862 548.341 316.119 548.341C316.31 548.341 316.51 548.325 316.717 548.291C316.933 548.25 317.095 548.217 317.203 548.192L317.215 550.072C317.033 550.13 316.792 550.184 316.493 550.234C316.202 550.292 315.85 550.321 315.435 550.321C314.87 550.321 314.351 550.209 313.878 549.985C313.405 549.761 313.027 549.387 312.745 548.864C312.471 548.333 312.334 547.619 312.334 546.723V533.325ZM321.648 530.947V550.072H319.345V530.947H321.648ZM321.1 542.825L320.142 542.788C320.15 541.867 320.287 541.016 320.553 540.235C320.818 539.447 321.192 538.762 321.673 538.181C322.155 537.6 322.727 537.152 323.391 536.836C324.064 536.513 324.807 536.351 325.62 536.351C326.284 536.351 326.882 536.442 327.413 536.625C327.944 536.799 328.397 537.081 328.77 537.471C329.152 537.861 329.443 538.368 329.642 538.99C329.841 539.605 329.941 540.356 329.941 541.244V550.072H327.625V541.219C327.625 540.514 327.521 539.949 327.314 539.526C327.106 539.094 326.803 538.783 326.405 538.592C326.006 538.393 325.516 538.293 324.935 538.293C324.363 538.293 323.84 538.413 323.367 538.654C322.902 538.895 322.499 539.227 322.159 539.65C321.827 540.074 321.565 540.559 321.374 541.107C321.192 541.647 321.1 542.219 321.1 542.825Z" fill="black"/>
<path id="EnPhysion" d="M239.177 524.362H246.699V527.728H235.658V509.878H246.572V513.244H239.177V517.043H245.934V520.358H239.177V524.362ZM256.88 514.621C258.274 514.621 259.422 515.088 260.323 516.023C261.241 516.958 261.7 518.25 261.7 519.899V527.728H258.41V520.307C258.41 519.457 258.181 518.811 257.722 518.369C257.263 517.91 256.651 517.681 255.886 517.681C255.036 517.681 254.356 517.944 253.846 518.471C253.336 518.998 253.081 519.789 253.081 520.843V527.728H249.791V514.978H253.081V516.406C253.88 515.216 255.146 514.621 256.88 514.621ZM272.082 509.878C273.799 509.878 275.244 510.456 276.417 511.612C277.59 512.768 278.177 514.187 278.177 515.87C278.177 517.553 277.59 518.973 276.417 520.129C275.244 521.285 273.799 521.863 272.082 521.863H268.946V527.728H265.427V509.878H272.082ZM272.082 518.573C272.83 518.573 273.451 518.318 273.944 517.808C274.437 517.281 274.683 516.635 274.683 515.87C274.683 515.088 274.437 514.442 273.944 513.932C273.451 513.422 272.83 513.167 272.082 513.167H268.946V518.573H272.082ZM288.169 514.621C289.563 514.621 290.71 515.088 291.611 516.023C292.529 516.958 292.988 518.25 292.988 519.899V527.728H289.699V520.307C289.699 519.457 289.469 518.811 289.01 518.369C288.551 517.91 287.939 517.681 287.174 517.681C286.324 517.681 285.644 517.944 285.134 518.471C284.624 518.998 284.369 519.789 284.369 520.843V527.728H281.08V509.878H284.369V516.406C285.168 515.216 286.435 514.621 288.169 514.621ZM304.601 514.978H308.12L303.479 527.728C302.816 529.564 301.932 530.89 300.827 531.706C299.739 532.539 298.379 532.913 296.747 532.828V529.768C297.631 529.785 298.328 529.598 298.838 529.207C299.365 528.816 299.782 528.187 300.088 527.32L294.86 514.978H298.456L301.771 523.546L304.601 514.978ZM312.688 518.599C312.688 518.939 312.909 519.219 313.351 519.44C313.81 519.644 314.363 519.831 315.009 520.001C315.655 520.154 316.301 520.358 316.947 520.613C317.593 520.851 318.137 521.259 318.579 521.837C319.038 522.415 319.267 523.138 319.267 524.005C319.267 525.314 318.774 526.325 317.788 527.039C316.819 527.736 315.604 528.085 314.142 528.085C311.524 528.085 309.739 527.073 308.787 525.05L311.643 523.444C312.017 524.549 312.85 525.101 314.142 525.101C315.315 525.101 315.901 524.736 315.901 524.005C315.901 523.665 315.672 523.393 315.213 523.189C314.771 522.968 314.227 522.772 313.581 522.602C312.935 522.432 312.289 522.22 311.643 521.965C310.997 521.71 310.444 521.31 309.985 520.766C309.543 520.205 309.322 519.508 309.322 518.675C309.322 517.417 309.781 516.431 310.699 515.717C311.634 514.986 312.79 514.621 314.167 514.621C315.204 514.621 316.148 514.859 316.998 515.335C317.848 515.794 318.519 516.457 319.012 517.324L316.207 518.854C315.799 517.987 315.119 517.553 314.167 517.553C313.742 517.553 313.385 517.647 313.096 517.834C312.824 518.021 312.688 518.276 312.688 518.599ZM323.78 513.448C323.236 513.448 322.76 513.252 322.352 512.861C321.961 512.453 321.765 511.977 321.765 511.433C321.765 510.889 321.961 510.413 322.352 510.005C322.76 509.597 323.236 509.393 323.78 509.393C324.341 509.393 324.817 509.597 325.208 510.005C325.616 510.413 325.82 510.889 325.82 511.433C325.82 511.977 325.616 512.453 325.208 512.861C324.817 513.252 324.341 513.448 323.78 513.448ZM322.148 527.728V514.978H325.437V527.728H322.148ZM340.076 526.147C338.767 527.439 337.169 528.085 335.282 528.085C333.395 528.085 331.797 527.439 330.488 526.147C329.196 524.838 328.55 523.24 328.55 521.353C328.55 519.466 329.196 517.876 330.488 516.584C331.797 515.275 333.395 514.621 335.282 514.621C337.169 514.621 338.767 515.275 340.076 516.584C341.385 517.876 342.04 519.466 342.04 521.353C342.04 523.24 341.385 524.838 340.076 526.147ZM332.809 523.877C333.472 524.54 334.296 524.872 335.282 524.872C336.268 524.872 337.093 524.54 337.756 523.877C338.419 523.214 338.75 522.373 338.75 521.353C338.75 520.333 338.419 519.491 337.756 518.828C337.093 518.165 336.268 517.834 335.282 517.834C334.296 517.834 333.472 518.165 332.809 518.828C332.163 519.491 331.84 520.333 331.84 521.353C331.84 522.373 332.163 523.214 332.809 523.877ZM352.208 514.621C353.602 514.621 354.749 515.088 355.65 516.023C356.568 516.958 357.027 518.25 357.027 519.899V527.728H353.738V520.307C353.738 519.457 353.508 518.811 353.049 518.369C352.59 517.91 351.978 517.681 351.213 517.681C350.363 517.681 349.683 517.944 349.173 518.471C348.663 518.998 348.408 519.789 348.408 520.843V527.728H345.119V514.978H348.408V516.406C349.207 515.216 350.474 514.621 352.208 514.621Z" fill="black"/>
<path id="Vector 1" d="M336.385 498.906L308.096 462.235C307.6 461.593 306.643 461.557 306.1 462.16L287.888 482.422C287.361 483.008 286.439 482.995 285.93 482.394L279.717 475.076C279.188 474.453 278.222 474.467 277.711 475.106L258.689 498.888C258.008 499.739 258.614 501 259.704 501H274.224C274.613 501 274.982 500.825 275.229 500.524L285.943 487.447C286.444 486.835 287.371 486.809 287.906 487.392L300.006 500.579C300.253 500.847 300.6 501 300.964 501H335.355C336.435 501 337.044 499.761 336.385 498.906Z" fill="#216EED"/>
</g>
<path id="tag-left" d="M87.1632 492.288C87.1632 493.136 86.9632 493.936 86.5632 494.688C86.1632 495.44 85.5232 496.056 84.6432 496.536C83.7632 497 82.6352 497.232 81.2592 497.232H78.2352V504H75.4992V487.32H81.2592C82.5392 487.32 83.6192 487.544 84.4992 487.992C85.3952 488.424 86.0592 489.016 86.4912 489.768C86.9392 490.52 87.1632 491.36 87.1632 492.288ZM81.2592 495C82.2992 495 83.0752 494.768 83.5872 494.304C84.0992 493.824 84.3552 493.152 84.3552 492.288C84.3552 490.464 83.3232 489.552 81.2592 489.552H78.2352V495H81.2592ZM101.893 497.064C101.893 497.56 101.861 498.008 101.797 498.408H91.6927C91.7727 499.464 92.1647 500.312 92.8687 500.952C93.5727 501.592 94.4367 501.912 95.4607 501.912C96.9327 501.912 97.9727 501.296 98.5807 500.064H101.533C101.133 501.28 100.405 502.28 99.3487 503.064C98.3087 503.832 97.0127 504.216 95.4607 504.216C94.1967 504.216 93.0607 503.936 92.0527 503.376C91.0607 502.8 90.2767 502 89.7007 500.976C89.1407 499.936 88.8607 498.736 88.8607 497.376C88.8607 496.016 89.1327 494.824 89.6767 493.8C90.2367 492.76 91.0127 491.96 92.0047 491.4C93.0127 490.84 94.1647 490.56 95.4607 490.56C96.7087 490.56 97.8207 490.832 98.7967 491.376C99.7727 491.92 100.533 492.688 101.077 493.68C101.621 494.656 101.893 495.784 101.893 497.064ZM99.0367 496.2C99.0207 495.192 98.6607 494.384 97.9567 493.776C97.2527 493.168 96.3807 492.864 95.3407 492.864C94.3967 492.864 93.5887 493.168 92.9167 493.776C92.2447 494.368 91.8447 495.176 91.7167 496.2H99.0367ZM107.321 492.696C107.721 492.024 108.249 491.504 108.905 491.136C109.577 490.752 110.369 490.56 111.281 490.56V493.392H110.585C109.513 493.392 108.697 493.664 108.137 494.208C107.593 494.752 107.321 495.696 107.321 497.04V504H104.585V490.776H107.321V492.696ZM118.596 504.216C117.556 504.216 116.62 504.032 115.788 503.664C114.972 503.28 114.324 502.768 113.844 502.128C113.364 501.472 113.108 500.744 113.076 499.944H115.908C115.956 500.504 116.22 500.976 116.7 501.36C117.196 501.728 117.812 501.912 118.548 501.912C119.316 501.912 119.908 501.768 120.324 501.48C120.756 501.176 120.972 500.792 120.972 500.328C120.972 499.832 120.732 499.464 120.252 499.224C119.788 498.984 119.044 498.72 118.02 498.432C117.028 498.16 116.22 497.896 115.596 497.64C114.972 497.384 114.428 496.992 113.964 496.464C113.516 495.936 113.292 495.24 113.292 494.376C113.292 493.672 113.5 493.032 113.916 492.456C114.332 491.864 114.924 491.4 115.692 491.064C116.476 490.728 117.372 490.56 118.38 490.56C119.884 490.56 121.092 490.944 122.004 491.712C122.932 492.464 123.428 493.496 123.492 494.808H120.756C120.708 494.216 120.468 493.744 120.036 493.392C119.604 493.04 119.02 492.864 118.284 492.864C117.564 492.864 117.012 493 116.628 493.272C116.244 493.544 116.052 493.904 116.052 494.352C116.052 494.704 116.18 495 116.436 495.24C116.692 495.48 117.004 495.672 117.372 495.816C117.74 495.944 118.284 496.112 119.004 496.32C119.964 496.576 120.748 496.84 121.356 497.112C121.98 497.368 122.516 497.752 122.964 498.264C123.412 498.776 123.644 499.456 123.66 500.304C123.66 501.056 123.452 501.728 123.036 502.32C122.62 502.912 122.028 503.376 121.26 503.712C120.508 504.048 119.62 504.216 118.596 504.216ZM132.352 504.216C131.104 504.216 129.976 503.936 128.968 503.376C127.96 502.8 127.168 502 126.592 500.976C126.016 499.936 125.728 498.736 125.728 497.376C125.728 496.032 126.024 494.84 126.616 493.8C127.208 492.76 128.016 491.96 129.04 491.4C130.064 490.84 131.208 490.56 132.472 490.56C133.736 490.56 134.88 490.84 135.904 491.4C136.928 491.96 137.736 492.76 138.328 493.8C138.92 494.84 139.216 496.032 139.216 497.376C139.216 498.72 138.912 499.912 138.304 500.952C137.696 501.992 136.864 502.8 135.808 503.376C134.768 503.936 133.616 504.216 132.352 504.216ZM132.352 501.84C133.056 501.84 133.712 501.672 134.32 501.336C134.944 501 135.448 500.496 135.832 499.824C136.216 499.152 136.408 498.336 136.408 497.376C136.408 496.416 136.224 495.608 135.856 494.952C135.488 494.28 135 493.776 134.392 493.44C133.784 493.104 133.128 492.936 132.424 492.936C131.72 492.936 131.064 493.104 130.456 493.44C129.864 493.776 129.392 494.28 129.04 494.952C128.688 495.608 128.512 496.416 128.512 497.376C128.512 498.8 128.872 499.904 129.592 500.688C130.328 501.456 131.248 501.84 132.352 501.84ZM148.593 490.56C149.633 490.56 150.561 490.776 151.377 491.208C152.209 491.64 152.857 492.28 153.321 493.128C153.785 493.976 154.017 495 154.017 496.2V504H151.305V496.608C151.305 495.424 151.009 494.52 150.417 493.896C149.825 493.256 149.017 492.936 147.993 492.936C146.969 492.936 146.153 493.256 145.545 493.896C144.953 494.52 144.657 495.424 144.657 496.608V504H141.921V490.776H144.657V492.288C145.105 491.744 145.673 491.32 146.361 491.016C147.065 490.712 147.809 490.56 148.593 490.56ZM156.595 497.328C156.595 496 156.867 494.824 157.411 493.8C157.971 492.776 158.723 491.984 159.667 491.424C160.627 490.848 161.683 490.56 162.835 490.56C163.875 490.56 164.779 490.768 165.547 491.184C166.331 491.584 166.955 492.088 167.419 492.696V490.776H170.179V504H167.419V502.032C166.955 502.656 166.323 503.176 165.523 503.592C164.723 504.008 163.811 504.216 162.787 504.216C161.651 504.216 160.611 503.928 159.667 503.352C158.723 502.76 157.971 501.944 157.411 500.904C156.867 499.848 156.595 498.656 156.595 497.328ZM167.419 497.376C167.419 496.464 167.227 495.672 166.843 495C166.475 494.328 165.987 493.816 165.379 493.464C164.771 493.112 164.115 492.936 163.411 492.936C162.707 492.936 162.051 493.112 161.443 493.464C160.835 493.8 160.339 494.304 159.955 494.976C159.587 495.632 159.403 496.416 159.403 497.328C159.403 498.24 159.587 499.04 159.955 499.728C160.339 500.416 160.835 500.944 161.443 501.312C162.067 501.664 162.723 501.84 163.411 501.84C164.115 501.84 164.771 501.664 165.379 501.312C165.987 500.96 166.475 500.448 166.843 499.776C167.227 499.088 167.419 498.288 167.419 497.376ZM176.509 486.24V504H173.773V486.24H176.509ZM83.742 529.008V536.328C83.742 536.824 83.854 537.184 84.078 537.408C84.318 537.616 84.718 537.72 85.278 537.72H86.958V540H84.798C83.566 540 82.622 539.712 81.966 539.136C81.31 538.56 80.982 537.624 80.982 536.328V529.008H79.422V526.776H80.982V523.488H83.742V526.776H86.958V529.008H83.742ZM92.2157 528.696C92.6157 528.024 93.1437 527.504 93.7997 527.136C94.4717 526.752 95.2637 526.56 96.1757 526.56V529.392H95.4797C94.4077 529.392 93.5917 529.664 93.0317 530.208C92.4877 530.752 92.2157 531.696 92.2157 533.04V540H89.4797V526.776H92.2157V528.696ZM97.7786 533.328C97.7786 532 98.0506 530.824 98.5946 529.8C99.1546 528.776 99.9066 527.984 100.851 527.424C101.811 526.848 102.867 526.56 104.019 526.56C105.059 526.56 105.963 526.768 106.731 527.184C107.515 527.584 108.139 528.088 108.603 528.696V526.776H111.363V540H108.603V538.032C108.139 538.656 107.507 539.176 106.707 539.592C105.907 540.008 104.995 540.216 103.971 540.216C102.835 540.216 101.795 539.928 100.851 539.352C99.9066 538.76 99.1546 537.944 98.5946 536.904C98.0506 535.848 97.7786 534.656 97.7786 533.328ZM108.603 533.376C108.603 532.464 108.411 531.672 108.027 531C107.659 530.328 107.171 529.816 106.563 529.464C105.955 529.112 105.299 528.936 104.595 528.936C103.891 528.936 103.235 529.112 102.627 529.464C102.019 529.8 101.523 530.304 101.139 530.976C100.771 531.632 100.587 532.416 100.587 533.328C100.587 534.24 100.771 535.04 101.139 535.728C101.523 536.416 102.019 536.944 102.627 537.312C103.251 537.664 103.907 537.84 104.595 537.84C105.299 537.84 105.955 537.664 106.563 537.312C107.171 536.96 107.659 536.448 108.027 535.776C108.411 535.088 108.603 534.288 108.603 533.376ZM116.348 525.024C115.852 525.024 115.436 524.856 115.1 524.52C114.764 524.184 114.596 523.768 114.596 523.272C114.596 522.776 114.764 522.36 115.1 522.024C115.436 521.688 115.852 521.52 116.348 521.52C116.828 521.52 117.236 521.688 117.572 522.024C117.908 522.36 118.076 522.776 118.076 523.272C118.076 523.768 117.908 524.184 117.572 524.52C117.236 524.856 116.828 525.024 116.348 525.024ZM117.692 526.776V540H114.956V526.776H117.692ZM127.956 526.56C128.996 526.56 129.924 526.776 130.74 527.208C131.572 527.64 132.22 528.28 132.684 529.128C133.148 529.976 133.38 531 133.38 532.2V540H130.668V532.608C130.668 531.424 130.372 530.52 129.78 529.896C129.188 529.256 128.38 528.936 127.356 528.936C126.332 528.936 125.516 529.256 124.908 529.896C124.316 530.52 124.02 531.424 124.02 532.608V540H121.284V526.776H124.02V528.288C124.468 527.744 125.036 527.32 125.724 527.016C126.428 526.712 127.172 526.56 127.956 526.56ZM138.262 525.024C137.766 525.024 137.35 524.856 137.014 524.52C136.678 524.184 136.51 523.768 136.51 523.272C136.51 522.776 136.678 522.36 137.014 522.024C137.35 521.688 137.766 521.52 138.262 521.52C138.742 521.52 139.15 521.688 139.486 522.024C139.822 522.36 139.99 522.776 139.99 523.272C139.99 523.768 139.822 524.184 139.486 524.52C139.15 524.856 138.742 525.024 138.262 525.024ZM139.606 526.776V540H136.87V526.776H139.606ZM149.87 526.56C150.91 526.56 151.838 526.776 152.654 527.208C153.486 527.64 154.134 528.28 154.598 529.128C155.062 529.976 155.294 531 155.294 532.2V540H152.582V532.608C152.582 531.424 152.286 530.52 151.694 529.896C151.102 529.256 150.294 528.936 149.27 528.936C148.246 528.936 147.43 529.256 146.822 529.896C146.23 530.52 145.934 531.424 145.934 532.608V540H143.198V526.776H145.934V528.288C146.382 527.744 146.95 527.32 147.638 527.016C148.342 526.712 149.086 526.56 149.87 526.56ZM164.112 526.56C165.136 526.56 166.04 526.768 166.824 527.184C167.624 527.584 168.248 528.088 168.696 528.696V526.776H171.456V540.216C171.456 541.432 171.2 542.512 170.688 543.456C170.176 544.416 169.432 545.168 168.456 545.712C167.496 546.256 166.344 546.528 165 546.528C163.208 546.528 161.72 546.104 160.536 545.256C159.352 544.424 158.68 543.288 158.52 541.848H161.232C161.44 542.536 161.88 543.088 162.552 543.504C163.24 543.936 164.056 544.152 165 544.152C166.104 544.152 166.992 543.816 167.664 543.144C168.352 542.472 168.696 541.496 168.696 540.216V538.008C168.232 538.632 167.6 539.16 166.8 539.592C166.016 540.008 165.12 540.216 164.112 540.216C162.96 540.216 161.904 539.928 160.944 539.352C160 538.76 159.248 537.944 158.688 536.904C158.144 535.848 157.872 534.656 157.872 533.328C157.872 532 158.144 530.824 158.688 529.8C159.248 528.776 160 527.984 160.944 527.424C161.904 526.848 162.96 526.56 164.112 526.56ZM168.696 533.376C168.696 532.464 168.504 531.672 168.12 531C167.752 530.328 167.264 529.816 166.656 529.464C166.048 529.112 165.392 528.936 164.688 528.936C163.984 528.936 163.328 529.112 162.72 529.464C162.112 529.8 161.616 530.304 161.232 530.976C160.864 531.632 160.68 532.416 160.68 533.328C160.68 534.24 160.864 535.04 161.232 535.728C161.616 536.416 162.112 536.944 162.72 537.312C163.344 537.664 164 537.84 164.688 537.84C165.392 537.84 166.048 537.664 166.656 537.312C167.264 536.96 167.752 536.448 168.12 535.776C168.504 535.088 168.696 534.288 168.696 533.376Z" fill="black"/>
<rect id="bar-left" x="65" width="122" height="446" fill="#EAECFF"/>
<rect id="bar-right" x="236" y="220" width="122" height="226" fill="url(#paint0_linear_84_35)"/>
<path id="price" d="M257.663 174.575V185H255.953V180.44H251.048V185H249.338V174.575H251.048V179.045H255.953V174.575H257.663ZM259.345 180.83C259.345 180 259.515 179.265 259.855 178.625C260.205 177.985 260.675 177.49 261.265 177.14C261.865 176.78 262.525 176.6 263.245 176.6C263.895 176.6 264.46 176.73 264.94 176.99C265.43 177.24 265.82 177.555 266.11 177.935V176.735H267.835V185H266.11V183.77C265.82 184.16 265.425 184.485 264.925 184.745C264.425 185.005 263.855 185.135 263.215 185.135C262.505 185.135 261.855 184.955 261.265 184.595C260.675 184.225 260.205 183.715 259.855 183.065C259.515 182.405 259.345 181.66 259.345 180.83ZM266.11 180.86C266.11 180.29 265.99 179.795 265.75 179.375C265.52 178.955 265.215 178.635 264.835 178.415C264.455 178.195 264.045 178.085 263.605 178.085C263.165 178.085 262.755 178.195 262.375 178.415C261.995 178.625 261.685 178.94 261.445 179.36C261.215 179.77 261.1 180.26 261.1 180.83C261.1 181.4 261.215 181.9 261.445 182.33C261.685 182.76 261.995 183.09 262.375 183.32C262.765 183.54 263.175 183.65 263.605 183.65C264.045 183.65 264.455 183.54 264.835 183.32C265.215 183.1 265.52 182.78 265.75 182.36C265.99 181.93 266.11 181.43 266.11 180.86ZM271.791 173.9V185H270.081V173.9H271.791ZM277.501 178.13H275.971V185H274.246V178.13H273.271V176.735H274.246V176.15C274.246 175.2 274.496 174.51 274.996 174.08C275.506 173.64 276.301 173.42 277.381 173.42V174.845C276.861 174.845 276.496 174.945 276.286 175.145C276.076 175.335 275.971 175.67 275.971 176.15V176.735H277.501V178.13ZM284.908 178.13V182.705C284.908 183.015 284.978 183.24 285.118 183.38C285.268 183.51 285.518 183.575 285.868 183.575H286.918V185H285.568C284.798 185 284.208 184.82 283.798 184.46C283.388 184.1 283.183 183.515 283.183 182.705V178.13H282.208V176.735H283.183V174.68H284.908V176.735H286.918V178.13H284.908ZM292.769 176.6C293.399 176.6 293.959 176.735 294.449 177.005C294.949 177.275 295.339 177.675 295.619 178.205C295.909 178.735 296.054 179.375 296.054 180.125V185H294.359V180.38C294.359 179.64 294.174 179.075 293.804 178.685C293.434 178.285 292.929 178.085 292.289 178.085C291.649 178.085 291.139 178.285 290.759 178.685C290.389 179.075 290.204 179.64 290.204 180.38V185H288.494V173.9H290.204V177.695C290.494 177.345 290.859 177.075 291.299 176.885C291.749 176.695 292.239 176.6 292.769 176.6ZM305.81 180.665C305.81 180.975 305.79 181.255 305.75 181.505H299.435C299.485 182.165 299.73 182.695 300.17 183.095C300.61 183.495 301.15 183.695 301.79 183.695C302.71 183.695 303.36 183.31 303.74 182.54H305.585C305.335 183.3 304.88 183.925 304.22 184.415C303.57 184.895 302.76 185.135 301.79 185.135C301 185.135 300.29 184.96 299.66 184.61C299.04 184.25 298.55 183.75 298.19 183.11C297.84 182.46 297.665 181.71 297.665 180.86C297.665 180.01 297.835 179.265 298.175 178.625C298.525 177.975 299.01 177.475 299.63 177.125C300.26 176.775 300.98 176.6 301.79 176.6C302.57 176.6 303.265 176.77 303.875 177.11C304.485 177.45 304.96 177.93 305.3 178.55C305.64 179.16 305.81 179.865 305.81 180.665ZM304.025 180.125C304.015 179.495 303.79 178.99 303.35 178.61C302.91 178.23 302.365 178.04 301.715 178.04C301.125 178.04 300.62 178.23 300.2 178.61C299.78 178.98 299.53 179.485 299.45 180.125H304.025ZM310.819 180.86C310.819 180.01 310.989 179.265 311.329 178.625C311.679 177.975 312.159 177.475 312.769 177.125C313.379 176.775 314.079 176.6 314.869 176.6C315.869 176.6 316.694 176.84 317.344 177.32C318.004 177.79 318.449 178.465 318.679 179.345H316.834C316.684 178.935 316.444 178.615 316.114 178.385C315.784 178.155 315.369 178.04 314.869 178.04C314.169 178.04 313.609 178.29 313.189 178.79C312.779 179.28 312.574 179.97 312.574 180.86C312.574 181.75 312.779 182.445 313.189 182.945C313.609 183.445 314.169 183.695 314.869 183.695C315.859 183.695 316.514 183.26 316.834 182.39H318.679C318.439 183.23 317.989 183.9 317.329 184.4C316.669 184.89 315.849 185.135 314.869 185.135C314.079 185.135 313.379 184.96 312.769 184.61C312.159 184.25 311.679 183.75 311.329 183.11C310.989 182.46 310.819 181.71 310.819 180.86ZM323.968 185.135C323.188 185.135 322.483 184.96 321.853 184.61C321.223 184.25 320.728 183.75 320.368 183.11C320.008 182.46 319.828 181.71 319.828 180.86C319.828 180.02 320.013 179.275 320.383 178.625C320.753 177.975 321.258 177.475 321.898 177.125C322.538 176.775 323.253 176.6 324.043 176.6C324.833 176.6 325.548 176.775 326.188 177.125C326.828 177.475 327.333 177.975 327.703 178.625C328.073 179.275 328.258 180.02 328.258 180.86C328.258 181.7 328.068 182.445 327.688 183.095C327.308 183.745 326.788 184.25 326.128 184.61C325.478 184.96 324.758 185.135 323.968 185.135ZM323.968 183.65C324.408 183.65 324.818 183.545 325.198 183.335C325.588 183.125 325.903 182.81 326.143 182.39C326.383 181.97 326.503 181.46 326.503 180.86C326.503 180.26 326.388 179.755 326.158 179.345C325.928 178.925 325.623 178.61 325.243 178.4C324.863 178.19 324.453 178.085 324.013 178.085C323.573 178.085 323.163 178.19 322.783 178.4C322.413 178.61 322.118 178.925 321.898 179.345C321.678 179.755 321.568 180.26 321.568 180.86C321.568 181.75 321.793 182.44 322.243 182.93C322.703 183.41 323.278 183.65 323.968 183.65ZM332.949 185.135C332.299 185.135 331.714 185.02 331.194 184.79C330.684 184.55 330.279 184.23 329.979 183.83C329.679 183.42 329.519 182.965 329.499 182.465H331.269C331.299 182.815 331.464 183.11 331.764 183.35C332.074 183.58 332.459 183.695 332.919 183.695C333.399 183.695 333.769 183.605 334.029 183.425C334.299 183.235 334.434 182.995 334.434 182.705C334.434 182.395 334.284 182.165 333.984 182.015C333.694 181.865 333.229 181.7 332.589 181.52C331.969 181.35 331.464 181.185 331.074 181.025C330.684 180.865 330.344 180.62 330.054 180.29C329.774 179.96 329.634 179.525 329.634 178.985C329.634 178.545 329.764 178.145 330.024 177.785C330.284 177.415 330.654 177.125 331.134 176.915C331.624 176.705 332.184 176.6 332.814 176.6C333.754 176.6 334.509 176.84 335.079 177.32C335.659 177.79 335.969 178.435 336.009 179.255H334.299C334.269 178.885 334.119 178.59 333.849 178.37C333.579 178.15 333.214 178.04 332.754 178.04C332.304 178.04 331.959 178.125 331.719 178.295C331.479 178.465 331.359 178.69 331.359 178.97C331.359 179.19 331.439 179.375 331.599 179.525C331.759 179.675 331.954 179.795 332.184 179.885C332.414 179.965 332.754 180.07 333.204 180.2C333.804 180.36 334.294 180.525 334.674 180.695C335.064 180.855 335.399 181.095 335.679 181.415C335.959 181.735 336.104 182.16 336.114 182.69C336.114 183.16 335.984 183.58 335.724 183.95C335.464 184.32 335.094 184.61 334.614 184.82C334.144 185.03 333.589 185.135 332.949 185.135ZM339.956 178.13V182.705C339.956 183.015 340.026 183.24 340.166 183.38C340.316 183.51 340.566 183.575 340.916 183.575H341.966V185H340.616C339.846 185 339.256 184.82 338.846 184.46C338.436 184.1 338.231 183.515 338.231 182.705V178.13H337.256V176.735H338.231V174.68H339.956V176.735H341.966V178.13H339.956ZM345.417 182.945L343.602 187.085H342.492L343.557 182.945H345.417ZM248.3 203.83C248.3 203 248.47 202.265 248.81 201.625C249.16 200.985 249.63 200.49 250.22 200.14C250.82 199.78 251.485 199.6 252.215 199.6C252.755 199.6 253.285 199.72 253.805 199.96C254.335 200.19 254.755 200.5 255.065 200.89V196.9H256.79V208H255.065V206.755C254.785 207.155 254.395 207.485 253.895 207.745C253.405 208.005 252.84 208.135 252.2 208.135C251.48 208.135 250.82 207.955 250.22 207.595C249.63 207.225 249.16 206.715 248.81 206.065C248.47 205.405 248.3 204.66 248.3 203.83ZM255.065 203.86C255.065 203.29 254.945 202.795 254.705 202.375C254.475 201.955 254.17 201.635 253.79 201.415C253.41 201.195 253 201.085 252.56 201.085C252.12 201.085 251.71 201.195 251.33 201.415C250.95 201.625 250.64 201.94 250.4 202.36C250.17 202.77 250.055 203.26 250.055 203.83C250.055 204.4 250.17 204.9 250.4 205.33C250.64 205.76 250.95 206.09 251.33 206.32C251.72 206.54 252.13 206.65 252.56 206.65C253 206.65 253.41 206.54 253.79 206.32C254.17 206.1 254.475 205.78 254.705 205.36C254.945 204.93 255.065 204.43 255.065 203.86ZM262.621 208.135C261.841 208.135 261.136 207.96 260.506 207.61C259.876 207.25 259.381 206.75 259.021 206.11C258.661 205.46 258.481 204.71 258.481 203.86C258.481 203.02 258.666 202.275 259.036 201.625C259.406 200.975 259.911 200.475 260.551 200.125C261.191 199.775 261.906 199.6 262.696 199.6C263.486 199.6 264.201 199.775 264.841 200.125C265.481 200.475 265.986 200.975 266.356 201.625C266.726 202.275 266.911 203.02 266.911 203.86C266.911 204.7 266.721 205.445 266.341 206.095C265.961 206.745 265.441 207.25 264.781 207.61C264.131 207.96 263.411 208.135 262.621 208.135ZM262.621 206.65C263.061 206.65 263.471 206.545 263.851 206.335C264.241 206.125 264.556 205.81 264.796 205.39C265.036 204.97 265.156 204.46 265.156 203.86C265.156 203.26 265.041 202.755 264.811 202.345C264.581 201.925 264.276 201.61 263.896 201.4C263.516 201.19 263.106 201.085 262.666 201.085C262.226 201.085 261.816 201.19 261.436 201.4C261.066 201.61 260.771 201.925 260.551 202.345C260.331 202.755 260.221 203.26 260.221 203.86C260.221 204.75 260.446 205.44 260.896 205.93C261.356 206.41 261.931 206.65 262.621 206.65ZM276.086 199.735V208H274.376V207.025C274.106 207.365 273.751 207.635 273.311 207.835C272.881 208.025 272.421 208.12 271.931 208.12C271.281 208.12 270.696 207.985 270.176 207.715C269.666 207.445 269.261 207.045 268.961 206.515C268.671 205.985 268.526 205.345 268.526 204.595V199.735H270.221V204.34C270.221 205.08 270.406 205.65 270.776 206.05C271.146 206.44 271.651 206.635 272.291 206.635C272.931 206.635 273.436 206.44 273.806 206.05C274.186 205.65 274.376 205.08 274.376 204.34V199.735H276.086ZM280.052 200.965C280.342 200.565 280.737 200.24 281.237 199.99C281.747 199.73 282.312 199.6 282.932 199.6C283.662 199.6 284.322 199.775 284.912 200.125C285.502 200.475 285.967 200.975 286.307 201.625C286.647 202.265 286.817 203 286.817 203.83C286.817 204.66 286.647 205.405 286.307 206.065C285.967 206.715 285.497 207.225 284.897 207.595C284.307 207.955 283.652 208.135 282.932 208.135C282.292 208.135 281.722 208.01 281.222 207.76C280.732 207.51 280.342 207.19 280.052 206.8V208H278.342V196.9H280.052V200.965ZM285.077 203.83C285.077 203.26 284.957 202.77 284.717 202.36C284.487 201.94 284.177 201.625 283.787 201.415C283.407 201.195 282.997 201.085 282.557 201.085C282.127 201.085 281.717 201.195 281.327 201.415C280.947 201.635 280.637 201.955 280.397 202.375C280.167 202.795 280.052 203.29 280.052 203.86C280.052 204.43 280.167 204.93 280.397 205.36C280.637 205.78 280.947 206.1 281.327 206.32C281.717 206.54 282.127 206.65 282.557 206.65C282.997 206.65 283.407 206.54 283.787 206.32C284.177 206.09 284.487 205.76 284.717 205.33C284.957 204.9 285.077 204.4 285.077 203.83ZM290.218 196.9V208H288.508V196.9H290.218ZM300.038 203.665C300.038 203.975 300.018 204.255 299.978 204.505H293.663C293.713 205.165 293.958 205.695 294.398 206.095C294.838 206.495 295.378 206.695 296.018 206.695C296.938 206.695 297.588 206.31 297.968 205.54H299.813C299.563 206.3 299.108 206.925 298.448 207.415C297.798 207.895 296.988 208.135 296.018 208.135C295.228 208.135 294.518 207.96 293.888 207.61C293.268 207.25 292.778 206.75 292.418 206.11C292.068 205.46 291.893 204.71 291.893 203.86C291.893 203.01 292.063 202.265 292.403 201.625C292.753 200.975 293.238 200.475 293.858 200.125C294.488 199.775 295.208 199.6 296.018 199.6C296.798 199.6 297.493 199.77 298.103 200.11C298.713 200.45 299.188 200.93 299.528 201.55C299.868 202.16 300.038 202.865 300.038 203.665ZM298.253 203.125C298.243 202.495 298.018 201.99 297.578 201.61C297.138 201.23 296.593 201.04 295.943 201.04C295.353 201.04 294.848 201.23 294.428 201.61C294.008 201.98 293.758 202.485 293.678 203.125H298.253ZM308.813 206.47L311.153 199.735H312.968L309.818 208H307.778L304.643 199.735H306.473L308.813 206.47ZM313.69 203.83C313.69 203 313.86 202.265 314.2 201.625C314.55 200.985 315.02 200.49 315.61 200.14C316.21 199.78 316.87 199.6 317.59 199.6C318.24 199.6 318.805 199.73 319.285 199.99C319.775 200.24 320.165 200.555 320.455 200.935V199.735H322.18V208H320.455V206.77C320.165 207.16 319.77 207.485 319.27 207.745C318.77 208.005 318.2 208.135 317.56 208.135C316.85 208.135 316.2 207.955 315.61 207.595C315.02 207.225 314.55 206.715 314.2 206.065C313.86 205.405 313.69 204.66 313.69 203.83ZM320.455 203.86C320.455 203.29 320.335 202.795 320.095 202.375C319.865 201.955 319.56 201.635 319.18 201.415C318.8 201.195 318.39 201.085 317.95 201.085C317.51 201.085 317.1 201.195 316.72 201.415C316.34 201.625 316.03 201.94 315.79 202.36C315.56 202.77 315.445 203.26 315.445 203.83C315.445 204.4 315.56 204.9 315.79 205.33C316.03 205.76 316.34 206.09 316.72 206.32C317.11 206.54 317.52 206.65 317.95 206.65C318.39 206.65 318.8 206.54 319.18 206.32C319.56 206.1 319.865 205.78 320.095 205.36C320.335 204.93 320.455 204.43 320.455 203.86ZM326.136 196.9V208H324.426V196.9H326.136ZM335.866 199.735V208H334.156V207.025C333.886 207.365 333.531 207.635 333.091 207.835C332.661 208.025 332.201 208.12 331.711 208.12C331.061 208.12 330.476 207.985 329.956 207.715C329.446 207.445 329.041 207.045 328.741 206.515C328.451 205.985 328.306 205.345 328.306 204.595V199.735H330.001V204.34C330.001 205.08 330.186 205.65 330.556 206.05C330.926 206.44 331.431 206.635 332.071 206.635C332.711 206.635 333.216 206.44 333.586 206.05C333.966 205.65 334.156 205.08 334.156 204.34V199.735H335.866ZM345.698 203.665C345.698 203.975 345.678 204.255 345.638 204.505H339.323C339.373 205.165 339.618 205.695 340.058 206.095C340.498 206.495 341.038 206.695 341.678 206.695C342.598 206.695 343.248 206.31 343.628 205.54H345.473C345.223 206.3 344.768 206.925 344.108 207.415C343.458 207.895 342.648 208.135 341.678 208.135C340.888 208.135 340.178 207.96 339.548 207.61C338.928 207.25 338.438 206.75 338.078 206.11C337.728 205.46 337.553 204.71 337.553 203.86C337.553 203.01 337.723 202.265 338.063 201.625C338.413 200.975 338.898 200.475 339.518 200.125C340.148 199.775 340.868 199.6 341.678 199.6C342.458 199.6 343.153 199.77 343.763 200.11C344.373 200.45 344.848 200.93 345.188 201.55C345.528 202.16 345.698 202.865 345.698 203.665ZM343.913 203.125C343.903 202.495 343.678 201.99 343.238 201.61C342.798 201.23 342.253 201.04 341.603 201.04C341.013 201.04 340.508 201.23 340.088 201.61C339.668 201.98 339.418 202.485 339.338 203.125H343.913Z" fill="#2F2E41"/>
<path id="money1" d="M17.1808 226.04C17.1808 226.707 17.0141 227.333 16.6808 227.92C16.3608 228.507 15.8808 229 15.2408 229.4C14.6141 229.8 13.8674 230.04 13.0008 230.12V231.74H11.7008V230.12C10.4474 230 9.43411 229.607 8.66078 228.94C7.88745 228.273 7.50078 227.393 7.50078 226.3H9.94078C9.98078 226.82 10.1474 227.253 10.4408 227.6C10.7341 227.933 11.1541 228.147 11.7008 228.24V223.84C10.8074 223.613 10.0808 223.387 9.52078 223.16C8.96078 222.92 8.48078 222.547 8.08078 222.04C7.69411 221.533 7.50078 220.84 7.50078 219.96C7.50078 218.853 7.88745 217.94 8.66078 217.22C9.43411 216.487 10.4474 216.06 11.7008 215.94V214.32H13.0008V215.94C14.1741 216.047 15.1141 216.42 15.8208 217.06C16.5408 217.687 16.9474 218.553 17.0408 219.66H14.6008C14.5608 219.247 14.4008 218.88 14.1208 218.56C13.8408 218.227 13.4674 218 13.0008 217.88V222.2C13.8941 222.413 14.6208 222.64 15.1808 222.88C15.7408 223.107 16.2141 223.473 16.6008 223.98C16.9874 224.473 17.1808 225.16 17.1808 226.04ZM9.82078 219.84C9.82078 220.387 9.98078 220.813 10.3008 221.12C10.6341 221.427 11.1008 221.673 11.7008 221.86V217.82C11.1274 217.887 10.6674 218.093 10.3208 218.44C9.98745 218.787 9.82078 219.253 9.82078 219.84ZM13.0008 228.24C13.5874 228.147 14.0474 227.913 14.3808 227.54C14.7141 227.153 14.8808 226.693 14.8808 226.16C14.8808 225.627 14.7141 225.213 14.3808 224.92C14.0608 224.613 13.6008 224.367 13.0008 224.18V228.24ZM23.3486 226.04C23.4819 226.707 23.7686 227.213 24.2086 227.56C24.6486 227.907 25.2419 228.08 25.9886 228.08C26.9353 228.08 27.6286 227.707 28.0686 226.96C28.5086 226.213 28.7286 224.94 28.7286 223.14C28.4086 223.593 27.9553 223.947 27.3686 224.2C26.7953 224.44 26.1686 224.56 25.4886 224.56C24.6219 224.56 23.8353 224.387 23.1286 224.04C22.4219 223.68 21.8619 223.153 21.4486 222.46C21.0486 221.753 20.8486 220.9 20.8486 219.9C20.8486 218.433 21.2753 217.267 22.1286 216.4C22.9953 215.52 24.1819 215.08 25.6886 215.08C27.5019 215.08 28.7886 215.687 29.5486 216.9C30.3219 218.1 30.7086 219.947 30.7086 222.44C30.7086 224.16 30.5619 225.567 30.2686 226.66C29.9886 227.753 29.4953 228.58 28.7886 229.14C28.0819 229.7 27.1019 229.98 25.8486 229.98C24.4219 229.98 23.3219 229.607 22.5486 228.86C21.7753 228.113 21.3419 227.173 21.2486 226.04H23.3486ZM25.8886 222.64C26.6886 222.64 27.3153 222.393 27.7686 221.9C28.2353 221.393 28.4686 220.727 28.4686 219.9C28.4686 218.98 28.2219 218.267 27.7286 217.76C27.2486 217.24 26.5886 216.98 25.7486 216.98C24.9086 216.98 24.2419 217.247 23.7486 217.78C23.2686 218.3 23.0286 218.987 23.0286 219.84C23.0286 220.653 23.2619 221.327 23.7286 221.86C24.2086 222.38 24.9286 222.64 25.8886 222.64ZM36.0439 226.04C36.1772 226.707 36.4639 227.213 36.9039 227.56C37.3439 227.907 37.9372 228.08 38.6839 228.08C39.6306 228.08 40.3239 227.707 40.7639 226.96C41.2039 226.213 41.4239 224.94 41.4239 223.14C41.1039 223.593 40.6506 223.947 40.0639 224.2C39.4906 224.44 38.8639 224.56 38.1839 224.56C37.3172 224.56 36.5306 224.387 35.8239 224.04C35.1172 223.68 34.5572 223.153 34.1439 222.46C33.7439 221.753 33.5439 220.9 33.5439 219.9C33.5439 218.433 33.9706 217.267 34.8239 216.4C35.6906 215.52 36.8772 215.08 38.3839 215.08C40.1972 215.08 41.4839 215.687 42.2439 216.9C43.0172 218.1 43.4039 219.947 43.4039 222.44C43.4039 224.16 43.2572 225.567 42.9639 226.66C42.6839 227.753 42.1906 228.58 41.4839 229.14C40.7772 229.7 39.7972 229.98 38.5439 229.98C37.1172 229.98 36.0172 229.607 35.2439 228.86C34.4706 228.113 34.0372 227.173 33.9439 226.04H36.0439ZM38.5839 222.64C39.3839 222.64 40.0106 222.393 40.4639 221.9C40.9306 221.393 41.1639 220.727 41.1639 219.9C41.1639 218.98 40.9172 218.267 40.4239 217.76C39.9439 217.24 39.2839 216.98 38.4439 216.98C37.6039 216.98 36.9372 217.247 36.4439 217.78C35.9639 218.3 35.7239 218.987 35.7239 219.84C35.7239 220.653 35.9572 221.327 36.4239 221.86C36.9039 222.38 37.6239 222.64 38.5839 222.64Z" fill="#0016D2"/>
<path id="money2" d="M11.2921 18.04C11.2921 18.7067 11.1254 19.3333 10.7921 19.92C10.4721 20.5067 9.99211 21 9.35211 21.4C8.72544 21.8 7.97878 22.04 7.11211 22.12V23.74H5.81211V22.12C4.55878 22 3.54544 21.6067 2.77211 20.94C1.99878 20.2733 1.61211 19.3933 1.61211 18.3H4.05211C4.09211 18.82 4.25878 19.2533 4.55211 19.6C4.84544 19.9333 5.26544 20.1467 5.81211 20.24V15.84C4.91878 15.6133 4.19211 15.3867 3.63211 15.16C3.07211 14.92 2.59211 14.5467 2.19211 14.04C1.80544 13.5333 1.61211 12.84 1.61211 11.96C1.61211 10.8533 1.99878 9.94 2.77211 9.22C3.54544 8.48667 4.55878 8.06 5.81211 7.94V6.32H7.11211V7.94C8.28544 8.04667 9.22544 8.42 9.93211 9.06C10.6521 9.68667 11.0588 10.5533 11.1521 11.66H8.71211C8.67211 11.2467 8.51211 10.88 8.23211 10.56C7.95211 10.2267 7.57878 10 7.11211 9.88V14.2C8.00544 14.4133 8.73211 14.64 9.29211 14.88C9.85211 15.1067 10.3254 15.4733 10.7121 15.98C11.0988 16.4733 11.2921 17.16 11.2921 18.04ZM3.93211 11.84C3.93211 12.3867 4.09211 12.8133 4.41211 13.12C4.74544 13.4267 5.21211 13.6733 5.81211 13.86V9.82C5.23878 9.88667 4.77878 10.0933 4.43211 10.44C4.09878 10.7867 3.93211 11.2533 3.93211 11.84ZM7.11211 20.24C7.69878 20.1467 8.15878 19.9133 8.49211 19.54C8.82544 19.1533 8.99211 18.6933 8.99211 18.16C8.99211 17.6267 8.82544 17.2133 8.49211 16.92C8.17211 16.6133 7.71211 16.3667 7.11211 16.18V20.24ZM15.8799 18.9C17.1599 17.7933 18.1666 16.8867 18.8999 16.18C19.6466 15.46 20.2666 14.7133 20.7599 13.94C21.2533 13.1667 21.4999 12.3933 21.4999 11.62C21.4999 10.82 21.3066 10.1933 20.9199 9.74C20.5466 9.28667 19.9533 9.06 19.1399 9.06C18.3533 9.06 17.7399 9.31333 17.2999 9.82C16.8733 10.3133 16.6466 10.98 16.6199 11.82H14.4199C14.4599 10.3 14.9133 9.14 15.7799 8.34C16.6599 7.52667 17.7733 7.12 19.1199 7.12C20.5733 7.12 21.7066 7.52 22.5199 8.32C23.3466 9.12 23.7599 10.1867 23.7599 11.52C23.7599 12.48 23.5133 13.4067 23.0199 14.3C22.5399 15.18 21.9599 15.9733 21.2799 16.68C20.6133 17.3733 19.7599 18.18 18.7199 19.1L17.8199 19.9H24.1599V21.8H14.4399V20.14L15.8799 18.9ZM26.1629 14.52C26.1629 12.2133 26.5496 10.4133 27.3229 9.12C28.1096 7.81333 29.4562 7.16 31.3629 7.16C33.2696 7.16 34.6096 7.81333 35.3829 9.12C36.1696 10.4133 36.5629 12.2133 36.5629 14.52C36.5629 16.8533 36.1696 18.68 35.3829 20C34.6096 21.3067 33.2696 21.96 31.3629 21.96C29.4562 21.96 28.1096 21.3067 27.3229 20C26.5496 18.68 26.1629 16.8533 26.1629 14.52ZM34.3229 14.52C34.3229 13.44 34.2496 12.5267 34.1029 11.78C33.9696 11.0333 33.6896 10.4267 33.2629 9.96C32.8362 9.48 32.2029 9.24 31.3629 9.24C30.5229 9.24 29.8896 9.48 29.4629 9.96C29.0362 10.4267 28.7496 11.0333 28.6029 11.78C28.4696 12.5267 28.4029 13.44 28.4029 14.52C28.4029 15.64 28.4696 16.58 28.6029 17.34C28.7362 18.1 29.0162 18.7133 29.4429 19.18C29.8829 19.6467 30.5229 19.88 31.3629 19.88C32.2029 19.88 32.8362 19.6467 33.2629 19.18C33.7029 18.7133 33.9896 18.1 34.1229 17.34C34.2562 16.58 34.3229 15.64 34.3229 14.52ZM38.9754 14.52C38.9754 12.2133 39.3621 10.4133 40.1354 9.12C40.9221 7.81333 42.2687 7.16 44.1754 7.16C46.0821 7.16 47.4221 7.81333 48.1954 9.12C48.9821 10.4133 49.3754 12.2133 49.3754 14.52C49.3754 16.8533 48.9821 18.68 48.1954 20C47.4221 21.3067 46.0821 21.96 44.1754 21.96C42.2687 21.96 40.9221 21.3067 40.1354 20C39.3621 18.68 38.9754 16.8533 38.9754 14.52ZM47.1354 14.52C47.1354 13.44 47.0621 12.5267 46.9154 11.78C46.7821 11.0333 46.5021 10.4267 46.0754 9.96C45.6487 9.48 45.0154 9.24 44.1754 9.24C43.3354 9.24 42.7021 9.48 42.2754 9.96C41.8487 10.4267 41.5621 11.0333 41.4154 11.78C41.2821 12.5267 41.2154 13.44 41.2154 14.52C41.2154 15.64 41.2821 16.58 41.4154 17.34C41.5487 18.1 41.8287 18.7133 42.2554 19.18C42.6954 19.6467 43.3354 19.88 44.1754 19.88C45.0154 19.88 45.6487 19.6467 46.0754 19.18C46.5154 18.7133 46.8021 18.1 46.9354 17.34C47.0687 16.58 47.1354 15.64 47.1354 14.52Z" fill="#ADADAD"/>
</g>
<defs>
<linearGradient id="paint0_linear_84_35" x1="297" y1="220" x2="297" y2="446" gradientUnits="userSpaceOnUse">
<stop stop-color="#0016D2"/>
<stop offset="1" stop-color="#216FED"/>
</linearGradient>
</defs>
</svg>
